<svg width="16" height="16" viewBox="0 0 16 16" fill="none" xmlns="http://www.w3.org/2000/svg">
<path fill-rule="evenodd" clip-rule="evenodd" d="M1.75141 4C1.46248 4 1.1992 4.16608 1.07465 4.42676C0.950212 4.6876 0.986633 4.997 1.1684 5.22168L2.81 7.25H0.75141C0.462469 7.25 0.199205 7.41607 0.0746521 7.67676C-0.0497923 7.93761 -0.0133726 8.247 0.168402 8.47168L4.4184 13.7217C4.5608 13.8975 4.77514 14 5.00141 14H14.2514C14.5363 13.9999 14.7967 13.8383 14.9233 13.583C15.0498 13.3277 15.0206 13.0227 14.8481 12.7959L13.2905 10.75H15.2514C15.5403 10.7499 15.8037 10.5839 15.9282 10.3232C16.0525 10.0625 16.0161 9.75296 15.8344 9.52832L13.5971 6.76367C13.2328 7.10938 12.8111 7.39449 12.3471 7.60352L13.6791 9.25H6.35883L3.32368 5.5H6.47016C6.24107 5.03916 6.08876 4.53383 6.02973 4H1.75141ZM5.4184 10.4717C5.5608 10.6475 5.77515 10.75 6.00141 10.75H11.4057L12.7377 12.5H5.35883L2.32368 8.75H4.00141V8.7207L5.4184 10.4717Z" fill="#6F6F6F"/>
<path d="M10.5014 0C10.0762 1.85884e-08 9.71218 0.305725 9.6391 0.724609L9.46137 1.74805C9.39807 2.11177 9.11314 2.39656 8.74946 2.45996L7.72602 2.6377C7.30701 2.71067 7.00141 3.07466 7.00141 3.5C7.00141 3.92534 7.30701 4.28933 7.72602 4.3623L8.74946 4.54004C9.11314 4.60344 9.39807 4.88823 9.46137 5.25195L9.6391 6.27539C9.71218 6.69427 10.0762 7 10.5014 7C10.9266 6.9999 11.2907 6.69424 11.3637 6.27539L11.5414 5.25195C11.6048 4.88815 11.8895 4.60331 12.2534 4.54004L13.2758 4.3623C13.6949 4.28942 14.0014 3.92541 14.0014 3.5C14.0014 3.07459 13.6949 2.71058 13.2758 2.6377L12.2534 2.45996C11.8895 2.39669 11.6048 2.11185 11.5414 1.74805L11.3637 0.724609C11.2907 0.305759 10.9266 0.000104244 10.5014 0Z" fill="#6F6F6F"/>
</svg>
