<svg width="16" height="16" viewBox="0 0 16 16" fill="none" xmlns="http://www.w3.org/2000/svg">
<path d="M8.00032 15.75C7.80148 15.75 7.61068 15.6708 7.47004 15.5303L1.22004 9.28027C1.00557 9.06579 0.940917 8.74313 1.05696 8.46289C1.17307 8.1827 1.44701 8 1.75032 8L5.50032 8L5.50032 0.75C5.50032 0.335786 5.83611 -3.62115e-08 6.25032 0L9.75032 3.0598e-07C10.1644 0.000172434 10.5003 0.335893 10.5003 0.75L10.5003 8L14.2503 8C14.5535 8.00013 14.8276 8.18273 14.9437 8.46289C15.0596 8.74303 14.9949 9.06582 14.7806 9.28027L8.53059 15.5303L8.41633 15.624C8.29412 15.7055 8.14936 15.7499 8.00032 15.75Z" fill="#6F6F6F"/>
</svg>
