<svg width="16" height="16" viewBox="0 0 16 16" fill="none" xmlns="http://www.w3.org/2000/svg">
<path d="M7.99998 0.25C8.19881 0.25 8.38961 0.329174 8.53025 0.469727L14.7803 6.71973C14.9948 6.93421 15.0594 7.25687 14.9434 7.53711C14.8273 7.8173 14.5533 8 14.25 8H10.5V15.25C10.5 15.6642 10.1642 16 9.74998 16H6.24997C5.8359 15.9998 5.49996 15.6641 5.49996 15.25V8H1.74994C1.44672 7.99987 1.17262 7.81727 1.05658 7.53711C0.940628 7.25697 1.00534 6.93418 1.21967 6.71973L7.4697 0.469727L7.58396 0.375977C7.70617 0.294505 7.85093 0.250063 7.99998 0.25Z" fill="#6F6F6F"/>
</svg>
