<svg viewBox="0 0 14.0303 14" fill="none" xmlns="http://www.w3.org/2000/svg">
<path fill-rule="evenodd" clip-rule="evenodd" d="M2.75 0C4.26878 0 5.5 1.23122 5.5 2.75C5.5 4.0084 4.65373 5.06578 3.5 5.39258V8.60645C4.65386 8.93316 5.5 9.9915 5.5 11.25C5.5 12.7688 4.26878 14 2.75 14C1.23122 14 0 12.7688 0 11.25C0 9.9915 0.84614 8.93316 2 8.60645V5.39258C0.846272 5.06578 0 4.0084 0 2.75C0 1.23122 1.23122 0 2.75 0ZM2.75 10C2.05964 10 1.5 10.5596 1.5 11.25C1.5 11.9404 2.05964 12.5 2.75 12.5C3.44036 12.5 4 11.9404 4 11.25C4 10.5596 3.44036 10 2.75 10ZM2.75 1.5C2.05964 1.5 1.5 2.05964 1.5 2.75C1.5 3.44036 2.05964 4 2.75 4C3.44036 4 4 3.44036 4 2.75C4 2.05964 3.44036 1.5 2.75 1.5Z" fill="currentColor"/>
<path d="M14.0303 4.53027L8.5 10.0605L5.46973 7.03027L6.53027 5.96973L8.5 7.93945L12.9697 3.46973L14.0303 4.53027Z" fill="currentColor"/>
</svg>
