<svg width="16" height="16" viewBox="0 0 16 16" fill="none" xmlns="http://www.w3.org/2000/svg">
<path fill-rule="evenodd" clip-rule="evenodd" d="M11.5626 1.37722C12.246 0.693863 13.3538 0.693978 14.0372 1.37722L14.6232 1.96316C15.3063 2.6466 15.3065 3.75444 14.6232 4.43777L7.74816 11.3118C7.71517 13.3543 6.05051 15.0002 4.00012 15.0003H0.750116C0.469255 15.0003 0.211714 14.8427 0.0831237 14.593C-0.04515 14.3435 -0.0232006 14.0432 0.139764 13.8147L0.807733 12.8792C1.09524 12.4767 1.25006 11.9939 1.25012 11.4993C1.25012 9.70504 2.70469 8.25027 4.49914 8.25027H4.68957L11.5626 1.37722ZM4.49914 9.75027C3.53331 9.75027 2.75012 10.5333 2.75012 11.4993C2.75006 12.2063 2.55673 12.8981 2.19348 13.5003H4.00012C5.22367 13.5002 6.21599 12.5232 6.24621 11.3069L4.68957 9.75027H4.49914ZM12.9767 2.43777C12.879 2.34031 12.7207 2.3402 12.6232 2.43777L6.06066 9.00027L7.00012 9.93972L13.5626 3.37722C13.6602 3.27967 13.66 3.12136 13.5626 3.02371L12.9767 2.43777Z" fill="#6F6F6F"/>
</svg>
