<svg width="16" height="16" viewBox="0 0 16 16" fill="none" xmlns="http://www.w3.org/2000/svg">
<g clip-path="url(#clip0_16656_29063)">
<path d="M14.0003 11.9393L12.5003 10.4393V5H7.06096L5.56096 3.5H12.5003V1.5H4.5003C4.23959 1.5 4.00218 1.59977 3.82417 1.76321L2.76312 0.702162C3.21291 0.267455 3.82537 0 4.5003 0H13.2503C13.6645 0 14.0003 0.335786 14.0003 0.75V11.9393Z" fill="#6F6F6F"/>
<path fill-rule="evenodd" clip-rule="evenodd" d="M2.0003 4.06066L0.469971 2.53033L1.53063 1.46967L15.0306 14.9697L13.97 16.0303L13.9396 16H4.7503C3.23152 16 2.0003 14.7688 2.0003 13.25V4.06066ZM3.5003 5.56066V13.25C3.5003 13.9404 4.05995 14.5 4.7503 14.5H12.4396L3.5003 5.56066Z" fill="#6F6F6F"/>
</g>
<defs>
<clipPath id="clip0_16656_29063">
<rect width="16" height="16" fill="white"/>
</clipPath>
</defs>
</svg>
