<svg width="16" height="16" viewBox="0 0 16 16" fill="none" xmlns="http://www.w3.org/2000/svg">
<path fill-rule="evenodd" clip-rule="evenodd" d="M0 3.71474C0 3.30052 0.335786 2.96474 0.75 2.96474H15.25C15.6642 2.96474 16 3.30052 16 3.71474L16 13.2574C16 13.6716 15.6642 14.0074 15.25 14.0074H0.75C0.335786 14.0074 0 13.6716 0 13.2574V3.71474ZM1.5 4.46474L1.5 12.5074H14.5L14.4378 4.46474H1.5Z" fill="#6F6F6F"/>
<path d="M10.5 7.68948H5.5V6.18948H10.5V7.68948Z" fill="#6F6F6F"/>
<path d="M4 6.93948C4 7.35369 3.66421 7.68948 3.25 7.68948C2.83579 7.68948 2.5 7.35369 2.5 6.93948C2.5 6.52526 2.83579 6.18948 3.25 6.18948C3.66421 6.18948 4 6.52526 4 6.93948Z" fill="#6F6F6F"/>
<path d="M12.6703 10.782H5.5V9.28203H12.6703V10.782Z" fill="#6F6F6F"/>
</svg>
