<svg width="16" height="16" viewBox="0 0 16 16" fill="none" xmlns="http://www.w3.org/2000/svg">
<path fill-rule="evenodd" clip-rule="evenodd" d="M10.8418 4.2627C11.0897 4.20746 11.3521 4.28176 11.5352 4.46484C11.7444 4.6741 11.8108 4.98633 11.7051 5.2627L10.041 9.60938C9.96484 9.80794 9.80794 9.96484 9.60938 10.041L5.2627 11.7051C4.98633 11.8108 4.6741 11.7444 4.46484 11.5352C4.25562 11.3259 4.18918 11.0137 4.29492 10.7373L5.95898 6.39062C6.03516 6.19209 6.19209 6.03516 6.39062 5.95898L10.7373 4.29492L10.8418 4.2627ZM6.2959 9.7041L8.76074 8.76074L7.23926 7.23926L6.2959 9.7041Z" fill="#6F6F6F"/>
<path fill-rule="evenodd" clip-rule="evenodd" d="M8 0C12.4183 0 16 3.58172 16 8C16 12.4183 12.4183 16 8 16C3.58172 16 0 12.4183 0 8C0 3.58172 3.58172 0 8 0ZM8 1.5C4.41015 1.5 1.5 4.41015 1.5 8C1.5 11.5899 4.41015 14.5 8 14.5C11.5899 14.5 14.5 11.5899 14.5 8C14.5 4.41015 11.5899 1.5 8 1.5Z" fill="#6F6F6F"/>
</svg>
