<svg width="16" height="16" viewBox="0 0 16 16" fill="none" xmlns="http://www.w3.org/2000/svg">
<path fill-rule="evenodd" clip-rule="evenodd" d="M16 8C16 3.58172 12.4183 0 8 0C3.58172 0 0 3.58172 0 8C0 12.4183 3.58172 16 8 16C12.4183 16 16 12.4183 16 8ZM11.5352 4.46484C11.3521 4.28176 11.0897 4.20746 10.8418 4.2627L10.7373 4.29492L6.39063 5.95898C6.19209 6.03516 6.03516 6.19209 5.95898 6.39063L4.29492 10.7373C4.18918 11.0137 4.25562 11.3259 4.46484 11.5352C4.6741 11.7444 4.98633 11.8108 5.2627 11.7051L9.60938 10.041C9.80794 9.96484 9.96484 9.80794 10.041 9.60938L11.7051 5.2627C11.8108 4.98633 11.7444 4.6741 11.5352 4.46484ZM6.2959 9.7041L8.76074 8.76074L7.23926 7.23926L6.2959 9.7041Z" fill="#161616"/>
</svg>
