<svg width="16" height="16" viewBox="0 0 16 16" fill="none" xmlns="http://www.w3.org/2000/svg">
<path fill-rule="evenodd" clip-rule="evenodd" d="M12 8C14.2091 8 16 9.79086 16 12C16 14.2091 14.2091 16 12 16C9.79086 16 8 14.2091 8 12C8 9.79086 9.79086 8 12 8ZM11.25 12C11.25 12.1989 11.3291 12.3896 11.4697 12.5303L12.9697 14.0303L14.0303 12.9697L12.75 11.6895V9.5H11.25V12Z" fill="#6F6F6F"/>
<path fill-rule="evenodd" clip-rule="evenodd" d="M8 1C9.78913 1 11.4419 1.25963 12.6738 1.70312C13.2865 1.9237 13.8353 2.20396 14.2451 2.55273C14.652 2.89902 15 3.38542 15 4V7.39062C14.5425 7.09227 14.0382 6.86025 13.5 6.70801V5.9375C13.2445 6.07121 12.9667 6.19142 12.6738 6.29688C11.4419 6.74037 9.78913 7 8 7C6.21087 7 4.5581 6.74037 3.32617 6.29688C3.03327 6.19142 2.75552 6.07121 2.5 5.9375V8C2.5 8.00674 2.50186 8.1126 2.72754 8.30469C2.95023 8.49417 3.31684 8.69922 3.83496 8.88574C4.67789 9.18913 5.81721 9.40436 7.11426 9.47363C6.87777 9.93004 6.70274 10.4234 6.60156 10.9434C5.35842 10.8457 4.22914 10.6219 3.32617 10.2969C3.03327 10.1914 2.75552 10.0712 2.5 9.9375V12C2.5 12.0067 2.50186 12.1126 2.72754 12.3047C2.95023 12.4942 3.31684 12.6992 3.83496 12.8857C4.58522 13.1558 5.57032 13.3562 6.69238 13.4463C6.84297 14.0002 7.07908 14.5185 7.38379 14.9883C5.83339 14.936 4.41529 14.689 3.32617 14.2969C2.71353 14.0763 2.16468 13.796 1.75488 13.4473C1.34803 13.101 1 12.6146 1 12V4C1 3.38542 1.34803 2.89902 1.75488 2.55273C2.16468 2.20396 2.71353 1.9237 3.32617 1.70312C4.5581 1.25963 6.21087 1 8 1ZM8 2.5C6.33758 2.5 4.86507 2.7435 3.83496 3.11426C3.31684 3.30078 2.95023 3.50583 2.72754 3.69531C2.50186 3.8874 2.5 3.99326 2.5 4C2.5 4.00674 2.50186 4.1126 2.72754 4.30469C2.95023 4.49417 3.31684 4.69922 3.83496 4.88574C4.86507 5.2565 6.33758 5.5 8 5.5C9.66242 5.5 11.1349 5.2565 12.165 4.88574C12.6832 4.69922 13.0498 4.49417 13.2725 4.30469C13.4981 4.1126 13.5 4.00674 13.5 4C13.5 3.99326 13.4981 3.8874 13.2725 3.69531C13.0498 3.50583 12.6832 3.30078 12.165 3.11426C11.1349 2.7435 9.66242 2.5 8 2.5Z" fill="#6F6F6F"/>
</svg>
