<svg width="16" height="16" viewBox="0 0 16 16" fill="none" xmlns="http://www.w3.org/2000/svg">
<g clip-path="url(#clip0_16320_32299)">
<path fill-rule="evenodd" clip-rule="evenodd" d="M7.99998 2.08337C4.73229 2.08337 2.08331 4.73236 2.08331 8.00004C2.08331 11.2677 4.73229 13.9167 7.99998 13.9167C11.2677 13.9167 13.9166 11.2677 13.9166 8.00004C13.9166 4.73236 11.2677 2.08337 7.99998 2.08337ZM0.583313 8.00004C0.583313 3.90393 3.90387 0.583374 7.99998 0.583374C12.0961 0.583374 15.4166 3.90393 15.4166 8.00004C15.4166 12.0962 12.0961 15.4167 7.99998 15.4167C3.90387 15.4167 0.583313 12.0962 0.583313 8.00004Z" fill="#6F6F6F"/>
<path fill-rule="evenodd" clip-rule="evenodd" d="M4.58331 10C4.58331 9.58583 4.9191 9.25004 5.33331 9.25004H10.6666C11.0809 9.25004 11.4166 9.58583 11.4166 10C11.4166 10.4143 11.0809 10.75 10.6666 10.75H5.33331C4.9191 10.75 4.58331 10.4143 4.58331 10Z" fill="#6F6F6F"/>
<path fill-rule="evenodd" clip-rule="evenodd" d="M5.24998 6.00004C5.24998 5.58583 5.58577 5.25004 5.99998 5.25004H6.00665C6.42086 5.25004 6.75665 5.58583 6.75665 6.00004C6.75665 6.41425 6.42086 6.75004 6.00665 6.75004H5.99998C5.58577 6.75004 5.24998 6.41425 5.24998 6.00004Z" fill="#6F6F6F"/>
<path fill-rule="evenodd" clip-rule="evenodd" d="M9.24998 6.00004C9.24998 5.58583 9.58577 5.25004 9.99998 5.25004H10.0066C10.4209 5.25004 10.7566 5.58583 10.7566 6.00004C10.7566 6.41425 10.4209 6.75004 10.0066 6.75004H9.99998C9.58577 6.75004 9.24998 6.41425 9.24998 6.00004Z" fill="#6F6F6F"/>
</g>
<defs>
<clipPath id="clip0_16320_32299">
<rect width="16" height="16" fill="white"/>
</clipPath>
</defs>
</svg>
