<svg width="16" height="16" viewBox="0 0 16 16" fill="none" xmlns="http://www.w3.org/2000/svg">
<g clip-path="url(#clip0_16320_32298)">
<path fill-rule="evenodd" clip-rule="evenodd" d="M7.99998 2.08337C4.73229 2.08337 2.08331 4.73236 2.08331 8.00004C2.08331 11.2677 4.73229 13.9167 7.99998 13.9167C11.2677 13.9167 13.9166 11.2677 13.9166 8.00004C13.9166 4.73236 11.2677 2.08337 7.99998 2.08337ZM0.583313 8.00004C0.583313 3.90393 3.90387 0.583374 7.99998 0.583374C12.0961 0.583374 15.4166 3.90393 15.4166 8.00004C15.4166 12.0962 12.0961 15.4167 7.99998 15.4167C3.90387 15.4167 0.583313 12.0962 0.583313 8.00004Z" fill="#6F6F6F"/>
<path d="M4.88331 8.73337C5.21355 8.48569 5.68158 8.55155 5.93076 8.88L5.93298 8.88282C5.93648 8.88724 5.94352 8.89601 5.95402 8.90851C5.97506 8.93358 6.00965 8.97327 6.0571 9.02278C6.1526 9.12243 6.29647 9.25799 6.48277 9.39349C6.85828 9.66658 7.37329 9.91671 7.99998 9.91671C8.62667 9.91671 9.14168 9.66658 9.51718 9.39349C9.70349 9.25799 9.84736 9.12243 9.94286 9.02278C9.9903 8.97327 10.0249 8.93358 10.0459 8.90851C10.0564 8.89601 10.0635 8.88734 10.067 8.88292C10.3156 8.55194 10.7854 8.48496 11.1166 8.73337C11.448 8.9819 11.5152 9.452 11.2666 9.78337L11.296 9.74131L11.2659 9.78437L11.265 9.7855L11.2631 9.78812L11.2579 9.79483L11.243 9.81388C11.2311 9.82899 11.215 9.84887 11.1949 9.87282C11.1547 9.92067 11.0982 9.98514 11.0258 10.0606C10.8818 10.211 10.6715 10.4088 10.3994 10.6066C9.85828 11.0002 9.03996 11.4167 7.99998 11.4167C6.96 11.4167 6.14168 11.0002 5.60052 10.6066C5.32849 10.4088 5.1182 10.211 4.97411 10.0606C4.90176 9.98514 4.84521 9.92067 4.80506 9.87282C4.78495 9.84887 4.76888 9.82899 4.75692 9.81388L4.74203 9.79483L4.7369 9.78812L4.73491 9.7855L4.73406 9.78437L4.73331 9.78337C4.48479 9.452 4.55194 8.9819 4.88331 8.73337Z" fill="#6F6F6F"/>
<path fill-rule="evenodd" clip-rule="evenodd" d="M5.24998 6.00004C5.24998 5.58583 5.58577 5.25004 5.99998 5.25004H6.00665C6.42086 5.25004 6.75665 5.58583 6.75665 6.00004C6.75665 6.41425 6.42086 6.75004 6.00665 6.75004H5.99998C5.58577 6.75004 5.24998 6.41425 5.24998 6.00004Z" fill="#6F6F6F"/>
<path fill-rule="evenodd" clip-rule="evenodd" d="M9.24998 6.00004C9.24998 5.58583 9.58577 5.25004 9.99998 5.25004H10.0066C10.4209 5.25004 10.7566 5.58583 10.7566 6.00004C10.7566 6.41425 10.4209 6.75004 10.0066 6.75004H9.99998C9.58577 6.75004 9.24998 6.41425 9.24998 6.00004Z" fill="#6F6F6F"/>
</g>
<defs>
<clipPath id="clip0_16320_32298">
<rect width="16" height="16" fill="white"/>
</clipPath>
</defs>
</svg>
