<svg width="16" height="16" viewBox="0 0 16 16" fill="none" xmlns="http://www.w3.org/2000/svg">
<path fill-rule="evenodd" clip-rule="evenodd" d="M0 1.75C0 1.33579 0.335786 1 0.75 1H4.67157C5.40092 1 6.10039 1.28973 6.61612 1.80546L7.81066 3H13.25C13.6642 3 14 3.33579 14 3.75V6H15.25C15.5147 6 15.7598 6.13953 15.8949 6.36715C16.03 6.59477 16.0352 6.87676 15.9084 7.10914L14.5599 9.58138C13.6524 8.32064 12.1726 7.5 10.5 7.5H9.25C8.00736 7.5 7 8.50736 7 9.75V12.25C7 12.513 7.04512 12.7654 7.12803 13H0.75C0.562792 13 0.391604 12.9314 0.260196 12.818C0.231022 12.7928 0.203686 12.7653 0.178492 12.7357C0.0671729 12.6048 0 12.4353 0 12.25V1.75ZM1.5 9.30875L3.09158 6.39086C3.223 6.14992 3.47554 6 3.75 6H12.5V4.5H7.5C7.30109 4.5 7.11032 4.42098 6.96967 4.28033L5.55546 2.86612C5.32104 2.6317 5.00309 2.5 4.67157 2.5H1.5V9.30875Z" fill="#6F6F6F"/>
<path fill-rule="evenodd" clip-rule="evenodd" d="M8.5 9.75C8.5 9.33579 8.83579 9 9.25 9H10.5C12.2632 9 13.7219 10.3039 13.9646 12H14.75C15.1642 12 15.5 12.3358 15.5 12.75V15.25C15.5 15.6642 15.1642 16 14.75 16H13.5C11.7368 16 10.2781 14.6961 10.0354 13H9.25C8.83579 13 8.5 12.6642 8.5 12.25V9.75ZM10 10.5V11.5H10.5C11.0523 11.5 11.5 11.9477 11.5 12.5C11.5 13.6046 12.3954 14.5 13.5 14.5H14V13.5H13.5C12.9477 13.5 12.5 13.0523 12.5 12.5C12.5 11.3954 11.6046 10.5 10.5 10.5H10Z" fill="#6F6F6F"/>
</svg>
