<svg width="16" height="16" viewBox="0 0 16 16" fill="none" xmlns="http://www.w3.org/2000/svg">
<path fill-rule="evenodd" clip-rule="evenodd" d="M10.6517 6.40901C11.5303 5.53033 12.955 5.53033 13.8336 6.40901C14.7123 7.28769 14.7123 8.71231 13.8336 9.59099C12.955 10.4697 11.5303 10.4697 10.6517 9.59099L10.648 9.5873L10.6443 9.58359L10.6405 9.57986L10.6368 9.57611L10.633 9.57234L10.6292 9.56855L10.6254 9.56474L10.6216 9.56092L10.6177 9.55707L10.6139 9.55321L10.61 9.54932L10.6061 9.54542L10.6022 9.5415L10.5982 9.53756L10.5943 9.5336L10.5903 9.52963L10.5863 9.52564L10.5823 9.52162L10.5783 9.51759L10.5742 9.51355L10.5702 9.50948L10.5661 9.5054L10.562 9.5013L10.5579 9.49718L10.5537 9.49305L10.5496 9.4889L10.5454 9.48473L10.5412 9.48054L10.537 9.47634L10.5328 9.47212L10.5286 9.46789L10.5243 9.46363L10.52 9.45936L10.5158 9.45508L10.5114 9.45078L10.5071 9.44646L10.5028 9.44213L10.4984 9.43778L10.4941 9.43341L10.4897 9.42903L10.4853 9.42463L10.4809 9.42022L10.4765 9.41579L10.472 9.41135L10.4676 9.40689L10.4631 9.40242L10.4586 9.39793L10.4541 9.39343L10.4496 9.38891L10.4451 9.38438L10.4405 9.37984L10.4359 9.37528L10.4314 9.3707L10.4268 9.36611L10.4222 9.36151L10.4176 9.35689L10.4129 9.35226L10.4083 9.34761L10.4036 9.34296L10.399 9.33828L10.3943 9.3336L10.3896 9.3289L10.3849 9.32419L10.3801 9.31946L10.3754 9.31472L10.3706 9.30997L10.3659 9.3052L10.3611 9.30043L10.3563 9.29564L10.3515 9.29084L10.3467 9.28602L10.3419 9.28119L10.337 9.27635L10.3322 9.2715L10.3273 9.26664L10.3224 9.26176L10.3175 9.25688L10.3127 9.25198L10.3077 9.24707L10.3028 9.24215L10.2979 9.23721L10.2929 9.23227L10.288 9.22731L10.283 9.22235L10.278 9.21737L10.2731 9.21238L10.2681 9.20738L10.263 9.20237L10.258 9.19735L10.253 9.19232L10.248 9.18728L10.2429 9.18223L10.2378 9.17717L10.2328 9.1721L10.2277 9.16702L10.2226 9.16193L10.2175 9.15683L10.2124 9.15172L10.2073 9.1466L10.2021 9.14147L10.197 9.13633L10.1919 9.13118L10.1867 9.12602L10.1815 9.12086L10.1764 9.11569L10.1712 9.1105L10.166 9.10531L10.1608 9.10011L10.1556 9.0949L10.1504 9.08969L10.1451 9.08446L10.1399 9.07923L10.1347 9.07399L10.1294 9.06874L10.1242 9.06348L10.1189 9.05822L10.1136 9.05295L10.1083 9.04767L10.1031 9.04238L10.0978 9.03709L10.0925 9.03178L10.0871 9.02648L10.0818 9.02116L10.0765 9.01584L10.0712 9.01051L10.0658 9.00518L10.0605 8.99983L10.0552 8.99449L10.0498 8.98913L10.0444 8.98377L10.0391 8.9784L10.0337 8.97303L10.0283 8.96765L10.0229 8.96227L10.0175 8.95688L10.0122 8.95148L10.0068 8.94608L10.0013 8.94067L9.99594 8.93526L9.99052 8.92985L9.9851 8.92442L9.97967 8.919L9.97424 8.91357L9.9688 8.90813L9.96336 8.90269L9.95792 8.89724L9.95247 8.89179L9.94701 8.88634L9.94155 8.88088L9.93609 8.87542L9.93062 8.86995L9.92515 8.86448L9.91968 8.85901L9.9142 8.85353L9.90872 8.84805L9.90324 8.84256L9.89775 8.83707L9.89226 8.83158L9.88676 8.82609L9.88126 8.82059L9.87576 8.81509L9.87026 8.80959L9.86475 8.80408L9.85925 8.79857L9.85373 8.79306L9.84822 8.78755L9.84271 8.78203L9.83719 8.77651L9.83167 8.77099L9.82615 8.76547L9.82062 8.75995L9.81509 8.75442L9.80957 8.7489L9.80404 8.74337L9.79851 8.73784L9.79298 8.7323L9.78744 8.72677L9.78191 8.72124L9.77637 8.7157L9.77084 8.71017L9.7653 8.70463L9.75976 8.69909L9.75423 8.69355L9.74869 8.68801L9.74315 8.68248L9.73761 8.67694L9.73207 8.6714L9.72653 8.66586L9.72099 8.66032L9.71545 8.65478L9.70991 8.64924L9.70437 8.6437L9.69883 8.63816L9.69329 8.63262L9.68776 8.62708L9.68222 8.62155L9.67669 8.61601L9.67115 8.61048L9.66562 8.60494L9.66008 8.59941L9.65455 8.59388L9.64902 8.58835L9.64349 8.58282L9.63797 8.5773L9.63244 8.57177L9.62692 8.56625L9.6214 8.56073L9.61588 8.55521L9.61036 8.54969L9.60485 8.54418L9.59933 8.53866L9.59383 8.53315L9.58832 8.52765L9.58281 8.52214L9.57731 8.51664L9.57181 8.51114L9.56631 8.50564L9.56082 8.50015L9.55533 8.49466L9.54984 8.48917L9.54436 8.48369L9.53888 8.47821L9.53341 8.47273L9.52793 8.46726L9.52246 8.46179L9.517 8.45633L9.51154 8.45087L9.50608 8.44541L9.50063 8.43996L9.49518 8.43451L9.48974 8.42907L9.4843 8.42363L9.47886 8.41819L9.47344 8.41276L9.46801 8.40734L9.46259 8.40192L9.45718 8.3965L9.45177 8.39109L9.44636 8.38569L9.44096 8.38029L9.43557 8.3749L9.43018 8.36951L9.4248 8.36413L9.41943 8.35875L9.41405 8.35338L9.40869 8.34802L9.40333 8.34266L9.39798 8.33731L9.39264 8.33196L9.3873 8.32662L9.38196 8.32129L9.37664 8.31597L9.37132 8.31065L9.36601 8.30533L9.3607 8.30003L9.3554 8.29473L9.35011 8.28944L9.34483 8.28416L9.33955 8.27888L9.33428 8.27361L9.32902 8.26835L9.32377 8.2631L9.31852 8.25785L9.31329 8.25261L9.30806 8.24738L9.30284 8.24216L9.29762 8.23695L9.29242 8.23175L9.28722 8.22655L9.28203 8.22136L9.27685 8.21618L9.27168 8.21101L9.26652 8.20585L9.26137 8.2007L9.25623 8.19555L9.25109 8.19042L9.24597 8.18529L9.24085 8.18018L9.23575 8.17507L9.23065 8.16998L9.22556 8.16489L9.22049 8.15981L9.21542 8.15475L9.21036 8.14969L9.20532 8.14464L9.20028 8.13961L9.19525 8.13458L9.19024 8.12956L9.18523 8.12456L9.18024 8.11956L9.17525 8.11458L9.17028 8.10961L9.16532 8.10465L9.16037 8.0997L9.15543 8.09476L9.1505 8.08983L9.14558 8.08491L9.14068 8.08001L9.13578 8.07511L9.1309 8.07023L9.12603 8.06536L9.12117 8.0605L9.11633 8.05566L9.11149 8.05082L9.10667 8.046L9.10186 8.04119L9.09706 8.03639L9.09228 8.03161L9.08751 8.02684L9.08275 8.02208L9.078 8.01733L9.07327 8.0126L9.06855 8.00788L9.06384 8.00317L9.06067 8L9.06308 7.9976L9.06788 7.9928L9.07269 7.98798L9.07752 7.98315L9.08237 7.97831L9.08722 7.97345L9.09209 7.96858L9.09697 7.9637L9.10186 7.95881L9.10677 7.9539L9.11169 7.94898L9.11662 7.94405L9.12156 7.93911L9.12652 7.93415L9.13149 7.92918L9.13647 7.9242L9.14146 7.91921L9.14646 7.91421L9.15148 7.90919L9.15651 7.90417L9.16154 7.89913L9.16659 7.89408L9.17165 7.88902L9.17672 7.88395L9.18181 7.87887L9.1869 7.87377L9.192 7.86867L9.19712 7.86356L9.20224 7.85843L9.20738 7.8533L9.21252 7.84815L9.21768 7.843L9.22284 7.83783L9.22802 7.83266L9.2332 7.82747L9.2384 7.82228L9.2436 7.81707L9.24881 7.81186L9.25404 7.80664L9.25927 7.80141L9.26451 7.79616L9.26976 7.79092L9.27502 7.78566L9.28028 7.78039L9.28556 7.77512L9.29084 7.76983L9.29613 7.76454L9.30143 7.75924L9.30674 7.75393L9.31206 7.74861L9.31738 7.74329L9.32272 7.73796L9.32806 7.73262L9.3334 7.72727L9.33876 7.72192L9.34412 7.71655L9.34949 7.71118L9.35487 7.70581L9.36025 7.70043L9.36564 7.69504L9.37103 7.68964L9.37644 7.68424L9.38185 7.67883L9.38726 7.67341L9.39268 7.66799L9.39811 7.66256L9.40355 7.65713L9.40899 7.65169L9.41443 7.64624L9.41988 7.64079L9.42534 7.63533L9.4308 7.62987L9.43627 7.6244L9.44174 7.61893L9.44722 7.61345L9.4527 7.60797L9.45819 7.60248L9.46368 7.59699L9.46918 7.59149L9.47468 7.58599L9.48019 7.58049L9.4857 7.57498L9.49121 7.56946L9.49673 7.56394L9.50225 7.55842L9.50778 7.5529L9.51331 7.54737L9.51884 7.54183L9.52437 7.5363L9.52991 7.53076L9.53546 7.52522L9.541 7.51967L9.54655 7.51412L9.5521 7.50857L9.55766 7.50302L9.56321 7.49746L9.56877 7.4919L9.57434 7.48634L9.5799 7.48077L9.58547 7.47521L9.59103 7.46964L9.5966 7.46407L9.60218 7.4585L9.60775 7.45292L9.61332 7.44735L9.6189 7.44177L9.62448 7.4362L9.63006 7.43062L9.63564 7.42504L9.64122 7.41946L9.6468 7.41387L9.65238 7.40829L9.65796 7.40271L9.66355 7.39712L9.66913 7.39154L9.67472 7.38596L9.6803 7.38037L9.68589 7.37479L9.69147 7.3692L9.69705 7.36362L9.70264 7.35804L9.70822 7.35245L9.7138 7.34687L9.71939 7.34129L9.72497 7.33571L9.73055 7.33013L9.73613 7.32455L9.74171 7.31897L9.74728 7.31339L9.75286 7.30782L9.75843 7.30224L9.764 7.29667L9.76958 7.2911L9.77514 7.28553L9.78071 7.27996L9.78628 7.2744L9.79184 7.26883L9.7974 7.26327L9.80296 7.25772L9.80851 7.25216L9.81407 7.24661L9.81962 7.24106L9.82516 7.23551L9.83071 7.22997L9.83625 7.22442L9.84179 7.21889L9.84732 7.21335L9.85285 7.20782L9.85838 7.20229L9.8639 7.19677L9.86942 7.19125L9.87494 7.18573L9.88045 7.18022L9.88596 7.17472L9.89146 7.16921L9.89696 7.16371L9.90245 7.15822L9.90794 7.15273L9.91343 7.14724L9.91891 7.14176L9.92439 7.13629L9.92986 7.13082L9.93532 7.12535L9.94078 7.11989L9.94623 7.11444L9.95168 7.10899L9.95712 7.10355L9.96256 7.09811L9.96799 7.09268L9.97342 7.08726L9.97884 7.08184L9.98425 7.07643L9.98965 7.07102L9.99505 7.06562L10.0004 7.06023L10.0058 7.05484L10.0112 7.04946L10.0166 7.04409L10.0219 7.03872L10.0273 7.03337L10.0327 7.02801L10.038 7.02267L10.0433 7.01734L10.0487 7.01201L10.054 7.00669L10.0593 7.00138L10.0646 6.99607L10.0699 6.99078L10.0752 6.98549L10.0805 6.98021L10.0857 6.97494L10.091 6.96967L10.0963 6.96442L10.1015 6.95918L10.1067 6.95394L10.112 6.94871L10.1172 6.9435L10.1224 6.93829L10.1276 6.93309L10.1328 6.9279L10.138 6.92272L10.1431 6.91755L10.1483 6.91239L10.1534 6.90724L10.1586 6.9021L10.1637 6.89697L10.1688 6.89185L10.1739 6.88674L10.179 6.88165L10.1841 6.87656L10.1892 6.87148L10.1943 6.86642L10.1993 6.86136L10.2044 6.85632L10.2094 6.85129L10.2144 6.84627L10.2194 6.84126L10.2244 6.83626L10.2294 6.83127L10.2344 6.8263L10.2393 6.82134L10.2443 6.81639L10.2492 6.81145L10.2541 6.80653L10.2591 6.80161L10.264 6.79671L10.2688 6.79183L10.2737 6.78695L10.2786 6.78209L10.2834 6.77724L10.2883 6.77241L10.2931 6.76759L10.2979 6.76278L10.3027 6.75798L10.3075 6.7532L10.3122 6.74843L10.317 6.74368L10.3217 6.73894L10.3265 6.73421L10.3312 6.7295L10.3359 6.72481L10.3406 6.72012L10.3452 6.71546L10.3499 6.7108L10.3545 6.70616L10.3591 6.70154L10.3637 6.69693L10.3683 6.69234L10.3729 6.68776L10.3775 6.6832L10.382 6.67865L10.3866 6.67412L10.3911 6.6696L10.3956 6.6651L10.4001 6.66062L10.4045 6.65615L10.409 6.6517L10.4134 6.64726L10.4178 6.64284L10.4222 6.63844L10.4266 6.63405L10.431 6.62969L10.4353 6.62533L10.4397 6.621L10.444 6.61668L10.4483 6.61238L10.4526 6.6081L10.4568 6.60383L10.4611 6.59958L10.4653 6.59535L10.4695 6.59114L10.4737 6.58694L10.4779 6.58277L10.4821 6.57861L10.4862 6.57447L10.4903 6.57035L10.4944 6.56625L10.4985 6.56216L10.5026 6.55809L10.5066 6.55405L10.5107 6.55002L10.5147 6.54601L10.5187 6.54202L10.5226 6.53805L10.5266 6.5341L10.5305 6.53017L10.5344 6.52626L10.5383 6.52237L10.5422 6.5185L10.546 6.51464L10.5499 6.51081L10.5537 6.507L10.5575 6.50321L10.5612 6.49944L10.565 6.49569L10.5687 6.49196L10.5724 6.48826L10.5761 6.48457L10.5798 6.4809L10.5834 6.47726L10.587 6.47364L10.5906 6.47004L10.5942 6.46645L10.5978 6.4629L10.6013 6.45936L10.6048 6.45585L10.6083 6.45235L10.6118 6.44888L10.6152 6.44543L10.6187 6.44201L10.6221 6.43861L10.6254 6.43523L10.6288 6.43187L10.6321 6.42853L10.6355 6.42522L10.6387 6.42193L10.642 6.41867L10.6452 6.41542L10.6485 6.41221L10.6517 6.40901ZM8.00002 6.93933L8.00242 6.93694L8.00722 6.93214L8.01203 6.92732L8.01686 6.92249L8.0217 6.91765L8.02656 6.91279L8.03143 6.90792L8.03631 6.90304L8.0412 6.89815L8.04611 6.89324L8.05103 6.88832L8.05596 6.88339L8.0609 6.87845L8.06586 6.87349L8.07083 6.86852L8.07581 6.86354L8.0808 6.85855L8.0858 6.85355L8.09082 6.84853L8.09585 6.84351L8.10088 6.83847L8.10593 6.83342L8.11099 6.82836L8.11607 6.82329L8.12115 6.81821L8.12624 6.81311L8.13134 6.80801L8.13646 6.8029L8.14158 6.79777L8.14672 6.79264L8.15186 6.78749L8.15702 6.78234L8.16218 6.77717L8.16736 6.772L8.17254 6.76681L8.17774 6.76162L8.18294 6.75641L8.18815 6.7512L8.19338 6.74598L8.19861 6.74075L8.20385 6.7355L8.2091 6.73026L8.21436 6.725L8.21962 6.71973L8.2249 6.71445L8.23018 6.70917L8.23547 6.70388L8.24078 6.69858L8.24608 6.69327L8.2514 6.68795L8.25672 6.68263L8.26206 6.6773L8.2674 6.67196L8.27274 6.66661L8.2781 6.66125L8.28346 6.65589L8.28883 6.65052L8.2942 6.64515L8.29959 6.63977L8.30498 6.63438L8.31037 6.62898L8.31578 6.62358L8.32119 6.61817L8.3266 6.61275L8.33202 6.60733L8.33745 6.6019L8.34289 6.59647L8.34833 6.59103L8.35377 6.58558L8.35922 6.58013L8.36468 6.57467L8.37014 6.56921L8.37561 6.56374L8.38108 6.55827L8.38656 6.55279L8.39204 6.54731L8.39753 6.54182L8.40302 6.53633L8.40852 6.53083L8.41402 6.52533L8.41953 6.51983L8.42504 6.51432L8.43055 6.5088L8.43607 6.50328L8.44159 6.49776L8.44712 6.49224L8.45265 6.48671L8.45818 6.48117L8.46371 6.47564L8.46925 6.4701L8.4748 6.46456L8.48034 6.45901L8.48589 6.45346L8.49144 6.44791L8.497 6.44236L8.50255 6.4368L8.50811 6.43124L8.51368 6.42568L8.51924 6.42011L8.52481 6.41455L8.53037 6.40898L8.53594 6.40341L8.54152 6.39784L8.54709 6.39226L8.55266 6.38669L8.55824 6.38111L8.56382 6.37554L8.5694 6.36996L8.57498 6.36438L8.58056 6.3588L8.58614 6.35321L8.59172 6.34763L8.59731 6.34205L8.60289 6.33646L8.60847 6.33088L8.61406 6.3253L8.61964 6.31971L8.62523 6.31413L8.63081 6.30854L8.63639 6.30296L8.64198 6.29738L8.64756 6.29179L8.65314 6.28621L8.65873 6.28063L8.66431 6.27505L8.66989 6.26946L8.67547 6.26389L8.68105 6.25831L8.68662 6.25273L8.6922 6.24715L8.69777 6.24158L8.70335 6.23601L8.70892 6.23044L8.71449 6.22487L8.72005 6.2193L8.72562 6.21374L8.73118 6.20817L8.73674 6.20261L8.7423 6.19705L8.74785 6.1915L8.75341 6.18595L8.75896 6.1804L8.7645 6.17485L8.77005 6.16931L8.77559 6.16376L8.78113 6.15823L8.78666 6.15269L8.79219 6.14716L8.79772 6.14163L8.80324 6.13611L8.80876 6.13059L8.81428 6.12507L8.81979 6.11956L8.8253 6.11406L8.8308 6.10855L8.8363 6.10305L8.84179 6.09756L8.84728 6.09207L8.85277 6.08658L8.85825 6.0811L8.86372 6.07563L8.86919 6.07016L8.87466 6.06469L8.88012 6.05923L8.88557 6.05378L8.89102 6.04833L8.89646 6.04289L8.9019 6.03745L8.90733 6.03202L8.91276 6.0266L8.91818 6.02118L8.92359 6.01577L8.92899 6.01036L8.93439 6.00496L8.93979 5.99957L8.94517 5.99418L8.95055 5.9888L8.95592 5.98343L8.96129 5.97806L8.96665 5.97271L8.972 5.96735L8.97734 5.96201L8.98268 5.95668L8.98801 5.95135L8.99333 5.94603L8.99864 5.94072L9.00394 5.93541L9.00924 5.93011L9.01453 5.92483L9.01981 5.91955L9.02508 5.91428L9.03034 5.90901L9.03559 5.90376L9.04084 5.89852L9.04607 5.89328L9.0513 5.88805L9.05652 5.88284L9.06173 5.87763L9.06692 5.87243L9.07211 5.86724L9.07729 5.86206L9.08246 5.85689L9.08762 5.85173L9.09277 5.84658L9.09791 5.84144L9.10304 5.83631L9.10816 5.83119L9.11327 5.82608L9.11837 5.82099L9.12346 5.8159L9.12853 5.81082L9.1336 5.80576L9.13865 5.8007L9.14369 5.79566L9.14873 5.79063L9.15375 5.78561L9.15876 5.7806L9.16375 5.7756L9.16874 5.77061L9.17371 5.76564L9.17867 5.76068L9.18362 5.75573L9.18856 5.75079L9.19349 5.74587L9.1984 5.74095L9.2033 5.73605L9.20819 5.73117L9.21306 5.72629L9.21792 5.72143L9.22277 5.71658L9.2276 5.71175L9.23243 5.70693L9.23724 5.70212L9.24203 5.69732L9.24681 5.69254L9.25158 5.68777L9.25633 5.68302L9.26107 5.67828L9.2658 5.67355L9.27051 5.66884L9.27521 5.66415L9.27989 5.65946L9.28456 5.65479L9.28921 5.65014L9.29385 5.6455L9.29847 5.64088L9.30308 5.63627L9.30768 5.63168L9.31225 5.6271L9.31682 5.62254L9.32136 5.61799L9.3259 5.61346L9.33041 5.60894L9.33491 5.60444L9.3394 5.59996L9.34386 5.59549L9.34832 5.59104L9.35275 5.5866L9.35717 5.58218L9.36157 5.57778L9.36596 5.57339L9.37033 5.56903L9.37468 5.56467L9.37901 5.56034L9.38333 5.55602L9.38763 5.55172L9.39192 5.54744L9.39618 5.54317L9.40043 5.53892L9.40466 5.53469L9.40887 5.53048L9.41307 5.52628L9.41724 5.52211L9.4214 5.51795L9.42554 5.51381L9.42967 5.50969L9.43377 5.50558L9.43785 5.5015L9.44192 5.49743L9.44597 5.49339L9.44999 5.48936L9.454 5.48535L9.45799 5.48136L9.46196 5.47739L9.46591 5.47344L9.46984 5.46951L9.47375 5.4656L9.47765 5.46171L9.48152 5.45784L9.48537 5.45398L9.4892 5.45015L9.49301 5.44634L9.4968 5.44255L9.50057 5.43878L9.50432 5.43503L9.50805 5.4313L9.51176 5.4276L9.51544 5.42391L9.51911 5.42024L9.52275 5.4166L9.52638 5.41298L9.52998 5.40937L9.53356 5.40579L9.53712 5.40224L9.54065 5.3987L9.54417 5.39519L9.54766 5.39169L9.55113 5.38822L9.55458 5.38477L9.558 5.38135L9.56141 5.37795L9.56479 5.37457L9.56815 5.37121L9.57148 5.36787L9.57479 5.36456L9.57808 5.36127L9.58135 5.35801L9.58459 5.35476L9.58781 5.35154L9.591 5.34835C11.0555 3.88388 13.4298 3.88388 14.8943 5.34835C16.3588 6.81282 16.3588 9.18718 14.8943 10.6517C13.4298 12.1161 11.0555 12.1161 9.591 10.6517L9.58731 10.648L9.5836 10.6442L9.57987 10.6405L9.57612 10.6368L9.57235 10.633L9.56856 10.6292L9.56476 10.6254L9.56093 10.6216L9.55708 10.6177L9.55322 10.6139L9.54933 10.61L9.54543 10.6061L9.54151 10.6022L9.53757 10.5982L9.53362 10.5943L9.52964 10.5903L9.52565 10.5863L9.52164 10.5823L9.51761 10.5783L9.51356 10.5742L9.50949 10.5701L9.50541 10.5661L9.50131 10.562L9.4972 10.5578L9.49306 10.5537L9.48891 10.5496L9.48474 10.5454L9.48055 10.5412L9.47635 10.537L9.47213 10.5328L9.4679 10.5285L9.46364 10.5243L9.45938 10.52L9.45509 10.5157L9.45079 10.5114L9.44647 10.5071L9.44214 10.5028L9.43779 10.4984L9.43342 10.4941L9.42904 10.4897L9.42465 10.4853L9.42023 10.4809L9.41581 10.4765L9.41136 10.472L9.40691 10.4676L9.40243 10.4631L9.39795 10.4586L9.39344 10.4541L9.38893 10.4496L9.38439 10.445L9.37985 10.4405L9.37529 10.4359L9.37071 10.4314L9.36612 10.4268L9.36152 10.4222L9.3569 10.4176L9.35227 10.4129L9.34763 10.4083L9.34297 10.4036L9.33829 10.3989L9.33361 10.3943L9.32891 10.3896L9.3242 10.3848L9.31947 10.3801L9.31473 10.3754L9.30998 10.3706L9.30522 10.3659L9.30044 10.3611L9.29565 10.3563L9.29085 10.3515L9.28603 10.3467L9.28121 10.3419L9.27637 10.337L9.27151 10.3322L9.26665 10.3273L9.26178 10.3224L9.25689 10.3175L9.25199 10.3126L9.24708 10.3077L9.24216 10.3028L9.23723 10.2979L9.23228 10.2929L9.22733 10.288L9.22236 10.283L9.21738 10.278L9.21239 10.273L9.20739 10.268L9.20238 10.263L9.19736 10.258L9.19233 10.253L9.18729 10.2479L9.18224 10.2429L9.17718 10.2378L9.17211 10.2328L9.16703 10.2277L9.16194 10.2226L9.15684 10.2175L9.15173 10.2124L9.14661 10.2073L9.14148 10.2021L9.13634 10.197L9.13119 10.1918L9.12604 10.1867L9.12087 10.1815L9.1157 10.1763L9.11051 10.1712L9.10532 10.166L9.10012 10.1608L9.09491 10.1556L9.0897 10.1503L9.08447 10.1451L9.07924 10.1399L9.074 10.1346L9.06875 10.1294L9.06349 10.1241L9.05823 10.1189L9.05296 10.1136L9.04768 10.1083L9.04239 10.103L9.0371 10.0977L9.0318 10.0924L9.02649 10.0871L9.02117 10.0818L9.01585 10.0765L9.01052 10.0712L9.00519 10.0658L8.99985 10.0605L8.9945 10.0551L8.98914 10.0498L8.98378 10.0444L8.97842 10.0391L8.97304 10.0337L8.96766 10.0283L8.96228 10.0229L8.95689 10.0175L8.95149 10.0121L8.94609 10.0067L8.94069 10.0013L8.93528 9.99592L8.92986 9.99051L8.92444 9.98508L8.91901 9.97966L8.91358 9.97423L8.90814 9.96879L8.9027 9.96335L8.89725 9.9579L8.8918 9.95245L8.88635 9.947L8.88089 9.94154L8.87543 9.93608L8.86996 9.93061L8.86449 9.92514L8.85902 9.91967L8.85354 9.91419L8.84806 9.90871L8.84258 9.90322L8.83709 9.89774L8.8316 9.89224L8.8261 9.88675L8.8206 9.88125L8.8151 9.87575L8.8096 9.87025L8.80409 9.86474L8.79859 9.85923L8.79307 9.85372L8.78756 9.84821L8.78205 9.84269L8.77653 9.83717L8.77101 9.83165L8.76548 9.82613L8.75996 9.82061L8.75443 9.81508L8.74891 9.80956L8.74338 9.80403L8.73785 9.7985L8.73232 9.79296L8.72678 9.78743L8.72125 9.7819L8.71571 9.77636L8.71018 9.77083L8.70464 9.76529L8.6991 9.75975L8.69357 9.75421L8.68803 9.74867L8.68249 9.74314L8.67695 9.7376L8.67141 9.73206L8.66587 9.72652L8.66033 9.72098L8.65479 9.71544L8.64925 9.7099L8.64371 9.70436L8.63817 9.69882L8.63263 9.69328L8.6271 9.68775L8.62156 9.68221L8.61602 9.67667L8.61049 9.67114L8.60496 9.6656L8.59942 9.66007L8.59389 9.65454L8.58836 9.64901L8.58284 9.64348L8.57731 9.63796L8.57178 9.63243L8.56626 9.62691L8.56074 9.62139L8.55522 9.61587L8.5497 9.61035L8.54419 9.60484L8.53867 9.59932L8.53316 9.59381L8.52766 9.5883L8.52215 9.5828L8.51665 9.5773L8.51115 9.5718L8.50565 9.5663L8.50016 9.56081L8.49467 9.55532L8.48918 9.54983L8.4837 9.54435L8.47822 9.53887L8.47275 9.53339L8.46727 9.52792L8.4618 9.52245L8.45634 9.51699L8.45088 9.51153L8.44542 9.50607L8.43997 9.50062L8.43452 9.49517L8.42908 9.48973L8.42364 9.48429L8.41821 9.47885L8.41278 9.47342L8.40735 9.468L8.40193 9.46258L8.39652 9.45716L8.39111 9.45175L8.3857 9.44635L8.3803 9.44095L8.37491 9.43556L8.36952 9.43017L8.36414 9.42479L8.35876 9.41941L8.35339 9.41404L8.34803 9.40868L8.34267 9.40332L8.33732 9.39797L8.33197 9.39262L8.32664 9.38728L8.3213 9.38195L8.31598 9.37663L8.31066 9.37131L8.30535 9.36599L8.30004 9.36069L8.29474 9.35539L8.28945 9.3501L8.28417 9.34482L8.27889 9.33954L8.27362 9.33427L8.26836 9.32901L8.26311 9.32376L8.25786 9.31851L8.25263 9.31327L8.2474 9.30804L8.24218 9.30282L8.23696 9.29761L8.23176 9.29241L8.22656 9.28721L8.22137 9.28202L8.21619 9.27684L8.21102 9.27167L8.20586 9.26651L8.20071 9.26136L8.19557 9.25621L8.19043 9.25108L8.18531 9.24595L8.18019 9.24084L8.17509 9.23573L8.16999 9.23064L8.1649 9.22555L8.15983 9.22047L8.15476 9.21541L8.1497 9.21035L8.14466 9.2053L8.13962 9.20027L8.13459 9.19524L8.12958 9.19022L8.12457 9.18522L8.11958 9.18022L8.11459 9.17524L8.10962 9.17027L8.10466 9.16531L8.09971 9.16036L8.09477 9.15542L8.08984 9.15049L8.08492 9.14557L8.08002 9.14067L8.07512 9.13577L8.07024 9.13089L8.06537 9.12602L8.06051 9.12116L8.05567 9.11632L8.05083 9.11148L8.04601 9.10666L8.0412 9.10185L8.0364 9.09705L8.03162 9.09227L8.02685 9.0875L8.02209 9.08274L8.01734 9.07799L8.01261 9.07326L8.00789 9.06854L8.00318 9.06383L8.00002 9.06067L7.99762 9.06306L7.99282 9.06786L7.98801 9.07268L7.98318 9.07751L7.97833 9.08235L7.97348 9.08721L7.96861 9.09208L7.96373 9.09696L7.95884 9.10185L7.95393 9.10676L7.94901 9.11168L7.94408 9.11661L7.93913 9.12155L7.93418 9.12651L7.92921 9.13148L7.92423 9.13646L7.91924 9.14145L7.91423 9.14645L7.90922 9.15147L7.90419 9.15649L7.89916 9.16153L7.89411 9.16658L7.88905 9.17164L7.88397 9.17671L7.87889 9.18179L7.8738 9.18689L7.8687 9.19199L7.86358 9.1971L7.85846 9.20223L7.85332 9.20736L7.84818 9.21251L7.84302 9.21766L7.83786 9.22283L7.83268 9.228L7.8275 9.23319L7.8223 9.23838L7.8171 9.24359L7.81189 9.2488L7.80666 9.25402L7.80143 9.25925L7.79619 9.26449L7.79094 9.26974L7.78568 9.275L7.78042 9.28027L7.77514 9.28555L7.76986 9.29083L7.76456 9.29612L7.75926 9.30142L7.75396 9.30673L7.74864 9.31205L7.74331 9.31737L7.73798 9.3227L7.73264 9.32804L7.7273 9.33339L7.72194 9.33875L7.71658 9.34411L7.71121 9.34948L7.70583 9.35485L7.70045 9.36023L7.69506 9.36562L7.68966 9.37102L7.68426 9.37642L7.67885 9.38183L7.67344 9.38725L7.66801 9.39267L7.66259 9.3981L7.65715 9.40353L7.65171 9.40897L7.64627 9.41442L7.64081 9.41987L7.63536 9.42533L7.6299 9.43079L7.62443 9.43626L7.61896 9.44173L7.61348 9.44721L7.608 9.45269L7.60251 9.45818L7.59702 9.46367L7.59152 9.46917L7.58602 9.47467L7.58051 9.48017L7.575 9.48568L7.56949 9.4912L7.56397 9.49672L7.55845 9.50224L7.55292 9.50776L7.54739 9.51329L7.54186 9.51883L7.53632 9.52436L7.53078 9.5299L7.52524 9.53544L7.5197 9.54099L7.51415 9.54654L7.5086 9.55209L7.50304 9.55764L7.49748 9.5632L7.49193 9.56876L7.48636 9.57432L7.4808 9.57989L7.47523 9.58545L7.46967 9.59102L7.4641 9.59659L7.45852 9.60216L7.45295 9.60774L7.44738 9.61331L7.4418 9.61889L7.43622 9.62446L7.43064 9.63004L7.42506 9.63562L7.41948 9.6412L7.4139 9.64679L7.40832 9.65237L7.40273 9.65795L7.39715 9.66354L7.39157 9.66912L7.38598 9.6747L7.3804 9.68029L7.37481 9.68587L7.36923 9.69146L7.36364 9.69704L7.35806 9.70262L7.35248 9.70821L7.3469 9.71379L7.34131 9.71937L7.33573 9.72495L7.33015 9.73054L7.32457 9.73611L7.31899 9.74169L7.31342 9.74727L7.30784 9.75285L7.30227 9.75842L7.29669 9.76399L7.29112 9.76956L7.28555 9.77513L7.27999 9.7807L7.27442 9.78626L7.26886 9.79183L7.2633 9.79739L7.25774 9.80295L7.25219 9.8085L7.24663 9.81405L7.24108 9.8196L7.23554 9.82515L7.22999 9.83069L7.22445 9.83624L7.21891 9.84177L7.21338 9.84731L7.20785 9.85284L7.20232 9.85837L7.1968 9.86389L7.19128 9.86941L7.18576 9.87493L7.18025 9.88044L7.17474 9.88594L7.16924 9.89145L7.16374 9.89695L7.15824 9.90244L7.15275 9.90793L7.14727 9.91342L7.14179 9.9189L7.13631 9.92437L7.13084 9.92984L7.12538 9.93531L7.11992 9.94077L7.11447 9.94622L7.10902 9.95167L7.10358 9.95711L7.09814 9.96255L7.09271 9.96798L7.08728 9.9734L7.08186 9.97882L7.07645 9.98423L7.07104 9.98964L7.06565 9.99504L7.06025 10.0004L7.05487 10.0058L7.04949 10.0112L7.04411 10.0166L7.03875 10.0219L7.03339 10.0273L7.02804 10.0326L7.0227 10.038L7.01736 10.0433L7.01203 10.0487L7.00671 10.054L7.0014 10.0593L6.9961 10.0646L6.9908 10.0699L6.98551 10.0752L6.98023 10.0805L6.97496 10.0857L6.9697 10.091L6.96445 10.0962L6.9592 10.1015L6.95397 10.1067L6.94874 10.1119L6.94352 10.1172L6.93831 10.1224L6.93312 10.1276L6.92793 10.1328L6.92275 10.1379L6.91758 10.1431L6.91242 10.1483L6.90727 10.1534L6.90213 10.1586L6.897 10.1637L6.89188 10.1688L6.88677 10.1739L6.88167 10.179L6.87658 10.1841L6.87151 10.1892L6.86644 10.1942L6.86139 10.1993L6.85634 10.2043L6.85131 10.2094L6.84629 10.2144L6.84128 10.2194L6.83629 10.2244L6.8313 10.2294L6.82633 10.2344L6.82136 10.2393L6.81642 10.2443L6.81148 10.2492L6.80655 10.2541L6.80164 10.259L6.79674 10.2639L6.79185 10.2688L6.78698 10.2737L6.78212 10.2786L6.77727 10.2834L6.77243 10.2883L6.76761 10.2931L6.7628 10.2979L6.75801 10.3027L6.75323 10.3075L6.74846 10.3122L6.74371 10.317L6.73897 10.3217L6.73424 10.3264L6.72953 10.3312L6.72483 10.3359L6.72015 10.3405L6.71548 10.3452L6.71083 10.3499L6.70619 10.3545L6.70157 10.3591L6.69696 10.3637L6.69236 10.3683L6.68778 10.3729L6.68322 10.3775L6.67867 10.382L6.67414 10.3865L6.66963 10.3911L6.66513 10.3956L6.66064 10.4L6.65618 10.4045L6.65172 10.409L6.64729 10.4134L6.64287 10.4178L6.63847 10.4222L6.63408 10.4266L6.62971 10.431L6.62536 10.4353L6.62102 10.4397L6.61671 10.444L6.61241 10.4483L6.60812 10.4526L6.60386 10.4568L6.59961 10.4611L6.59538 10.4653L6.59117 10.4695L6.58697 10.4737L6.58279 10.4779L6.57864 10.4821L6.5745 10.4862L6.57037 10.4903L6.56627 10.4944L6.56219 10.4985L6.55812 10.5026L6.55407 10.5066L6.55005 10.5106L6.54604 10.5146L6.54205 10.5186L6.53808 10.5226L6.53413 10.5266L6.5302 10.5305L6.52628 10.5344L6.52239 10.5383L6.51852 10.5422L6.51467 10.546L6.51084 10.5498L6.50703 10.5537L6.50324 10.5574L6.49947 10.5612L6.49572 10.565L6.49199 10.5687L6.48828 10.5724L6.4846 10.5761L6.48093 10.5798L6.47729 10.5834L6.47366 10.587L6.47006 10.5906L6.46648 10.5942L6.46292 10.5978L6.45939 10.6013L6.45587 10.6048L6.45238 10.6083L6.44891 10.6118L6.44546 10.6152L6.44203 10.6187L6.43863 10.6221L6.43525 10.6254L6.43189 10.6288L6.42856 10.6321L6.42525 10.6354L6.42196 10.6387L6.41869 10.642L6.41545 10.6452L6.41223 10.6485L6.40904 10.6517C4.94457 12.1161 2.5702 12.1161 1.10573 10.6517C-0.358731 9.18718 -0.358731 6.81282 1.10573 5.34835C2.5702 3.88388 4.94457 3.88388 6.40904 5.34835L6.41273 5.35204L6.41644 5.35575L6.42017 5.35948L6.42392 5.36323L6.42769 5.367L6.43148 5.37079L6.43528 5.3746L6.43911 5.37842L6.44296 5.38227L6.44682 5.38613L6.4507 5.39002L6.45461 5.39392L6.45853 5.39784L6.46246 5.40178L6.46642 5.40574L6.4704 5.40971L6.47439 5.4137L6.4784 5.41772L6.48243 5.42175L6.48648 5.42579L6.49054 5.42986L6.49463 5.43394L6.49873 5.43804L6.50284 5.44216L6.50698 5.44629L6.51113 5.45044L6.5153 5.45461L6.51948 5.4588L6.52369 5.463L6.52791 5.46722L6.53214 5.47146L6.53639 5.47571L6.54066 5.47998L6.54495 5.48426L6.54925 5.48856L6.55357 5.49288L6.5579 5.49721L6.56225 5.50156L6.56661 5.50593L6.571 5.51031L6.57539 5.51471L6.5798 5.51912L6.58423 5.52355L6.58867 5.52799L6.59313 5.53245L6.5976 5.53692L6.60209 5.54141L6.60659 5.54591L6.61111 5.55043L6.61564 5.55496L6.62019 5.5595L6.62475 5.56406L6.62933 5.56864L6.63391 5.57323L6.63852 5.57783L6.64314 5.58245L6.64777 5.58708L6.65241 5.59173L6.65707 5.59639L6.66174 5.60106L6.66643 5.60574L6.67113 5.61044L6.67584 5.61515L6.68057 5.61988L6.68531 5.62462L6.69006 5.62937L6.69482 5.63414L6.6996 5.63891L6.70439 5.6437L6.70919 5.6485L6.71401 5.65332L6.71883 5.65815L6.72367 5.66299L6.72852 5.66784L6.73339 5.6727L6.73826 5.67758L6.74315 5.68246L6.74805 5.68736L6.75296 5.69227L6.75788 5.69719L6.76281 5.70213L6.76776 5.70707L6.77271 5.71203L6.77768 5.71699L6.78266 5.72197L6.78764 5.72696L6.79264 5.73196L6.79765 5.73697L6.80267 5.74199L6.8077 5.74702L6.81275 5.75206L6.8178 5.75711L6.82286 5.76217L6.82793 5.76724L6.83301 5.77232L6.8381 5.77741L6.8432 5.78251L6.84831 5.78762L6.85343 5.79274L6.85856 5.79787L6.8637 5.80301L6.86884 5.80816L6.874 5.81332L6.87917 5.81848L6.88434 5.82365L6.88952 5.82884L6.89472 5.83403L6.89992 5.83923L6.90512 5.84444L6.91034 5.84965L6.91557 5.85488L6.9208 5.86011L6.92604 5.86535L6.93129 5.8706L6.93654 5.87586L6.94181 5.88112L6.94708 5.88639L6.95236 5.89167L6.95765 5.89696L6.96294 5.90225L6.96824 5.90756L6.97355 5.91286L6.97887 5.91818L6.98419 5.9235L6.98952 5.92883L6.99485 5.93417L7.00019 5.93951L7.00554 5.94485L7.0109 5.95021L7.01626 5.95557L7.02162 5.96094L7.027 5.96631L7.03237 5.97169L7.03776 5.97707L7.04315 5.98246L7.04854 5.98786L7.05395 5.99326L7.05935 5.99867L7.06476 6.00408L7.07018 6.00949L7.0756 6.01492L7.08103 6.02034L7.08646 6.02577L7.0919 6.03121L7.09734 6.03665L7.10278 6.0421L7.10823 6.04755L7.11369 6.053L7.11915 6.05846L7.12461 6.06392L7.13007 6.06939L7.13555 6.07486L7.14102 6.08033L7.1465 6.08581L7.15198 6.09129L7.15746 6.09678L7.16295 6.10227L7.16844 6.10776L7.17394 6.11325L7.17943 6.11875L7.18494 6.12425L7.19044 6.12975L7.19594 6.13526L7.20145 6.14077L7.20696 6.14628L7.21248 6.15179L7.21799 6.15731L7.22351 6.16283L7.22903 6.16835L7.23455 6.17387L7.24008 6.17939L7.2456 6.18492L7.25113 6.19044L7.25666 6.19597L7.26219 6.2015L7.26772 6.20704L7.27325 6.21257L7.27879 6.2181L7.28432 6.22364L7.28986 6.22917L7.2954 6.23471L7.30093 6.24025L7.30647 6.24579L7.31201 6.25133L7.31755 6.25687L7.32309 6.2624L7.32863 6.26794L7.33417 6.27348L7.33971 6.27902L7.34525 6.28456L7.35079 6.2901L7.35633 6.29564L7.36187 6.30118L7.3674 6.30672L7.37294 6.31226L7.37848 6.31779L7.38401 6.32333L7.38955 6.32886L7.39508 6.3344L7.40061 6.33993L7.40615 6.34546L7.41168 6.35099L7.4172 6.35652L7.42273 6.36204L7.42826 6.36757L7.43378 6.37309L7.4393 6.37861L7.44482 6.38413L7.45034 6.38965L7.45585 6.39516L7.46136 6.40068L7.46687 6.40619L7.47238 6.4117L7.47789 6.4172L7.48339 6.4227L7.48889 6.4282L7.49438 6.4337L7.49988 6.43919L7.50537 6.44468L7.51085 6.45017L7.51634 6.45565L7.52182 6.46113L7.52729 6.46661L7.53277 6.47208L7.53823 6.47755L7.5437 6.48301L7.54916 6.48847L7.55462 6.49393L7.56007 6.49938L7.56552 6.50483L7.57096 6.51027L7.5764 6.51571L7.58183 6.52115L7.58726 6.52658L7.59269 6.532L7.59811 6.53742L7.60352 6.54284L7.60893 6.54825L7.61434 6.55365L7.61973 6.55905L7.62513 6.56444L7.63052 6.56983L7.6359 6.57521L7.64127 6.58059L7.64664 6.58596L7.65201 6.59132L7.65737 6.59668L7.66272 6.60203L7.66806 6.60738L7.6734 6.61272L7.67873 6.61805L7.68406 6.62337L7.68938 6.62869L7.69469 6.63401L7.7 6.63931L7.7053 6.64461L7.71059 6.6499L7.71587 6.65518L7.72115 6.66046L7.72641 6.66573L7.73168 6.67099L7.73693 6.67624L7.74217 6.68149L7.74741 6.68673L7.75264 6.69196L7.75786 6.69718L7.76308 6.70239L7.76828 6.70759L7.77348 6.71279L7.77867 6.71798L7.78384 6.72316L7.78901 6.72833L7.79418 6.73349L7.79933 6.73864L7.80447 6.74379L7.80961 6.74892L7.81473 6.75405L7.81985 6.75916L7.82495 6.76427L7.83005 6.76936L7.83514 6.77445L7.84021 6.77953L7.84528 6.78459L7.85034 6.78965L7.85538 6.7947L7.86042 6.79973L7.86545 6.80476L7.87046 6.80978L7.87547 6.81478L7.88046 6.81978L7.88545 6.82476L7.89042 6.82973L7.89538 6.83469L7.90033 6.83964L7.90527 6.84458L7.9102 6.84951L7.91512 6.85443L7.92002 6.85933L7.92491 6.86423L7.9298 6.86911L7.93467 6.87398L7.93952 6.87884L7.94437 6.88369L7.9492 6.88852L7.95403 6.89334L7.95884 6.89815L7.96363 6.90295L7.96842 6.90773L7.97319 6.9125L7.97795 6.91726L7.98269 6.92201L7.98743 6.92674L7.99215 6.93146L7.99685 6.93617L8.00002 6.93933ZM6.93936 7.99999L6.93619 7.99683L6.93149 7.99212L6.92677 7.9874L6.92203 7.98267L6.91729 7.97792L6.91253 7.97316L6.90776 7.96839L6.90297 7.96361L6.89818 7.95881L6.89337 7.954L6.88855 7.94918L6.88371 7.94435L6.87886 7.9395L6.87401 7.93464L6.86914 7.92977L6.86425 7.92489L6.85936 7.91999L6.85446 7.91509L6.84954 7.91017L6.84461 7.90524L6.83967 7.9003L6.83472 7.89535L6.82976 7.89039L6.82478 7.88542L6.8198 7.88044L6.81481 7.87544L6.8098 7.87044L6.80479 7.86542L6.79976 7.86039L6.79472 7.85536L6.78968 7.85031L6.78462 7.84525L6.77955 7.84019L6.77448 7.83511L6.76939 7.83002L6.76429 7.82493L6.75919 7.81982L6.75407 7.81471L6.74895 7.80958L6.74381 7.80445L6.73867 7.7993L6.73352 7.79415L6.72835 7.78899L6.72318 7.78382L6.718 7.77864L6.71282 7.77345L6.70762 7.76825L6.70242 7.76305L6.6972 7.75784L6.69198 7.75262L6.68675 7.74739L6.68151 7.74215L6.67627 7.7369L6.67101 7.73165L6.66575 7.72639L6.66049 7.72112L6.65521 7.71584L6.64993 7.71056L6.64463 7.70527L6.63934 7.69997L6.63403 7.69467L6.62872 7.68935L6.6234 7.68403L6.61807 7.67871L6.61274 7.67338L6.6074 7.66804L6.60206 7.66269L6.59671 7.65734L6.59135 7.65198L6.58598 7.64662L6.58061 7.64125L6.57524 7.63587L6.56986 7.63049L6.56447 7.6251L6.55907 7.61971L6.55368 7.61431L6.54827 7.60891L6.54286 7.6035L6.53745 7.59808L6.53203 7.59266L6.5266 7.58724L6.52117 7.58181L6.51574 7.57637L6.5103 7.57093L6.50486 7.56549L6.49941 7.56004L6.49396 7.55459L6.4885 7.54913L6.48304 7.54367L6.47757 7.53821L6.47211 7.53274L6.46663 7.52727L6.46116 7.52179L6.45568 7.51631L6.45019 7.51083L6.44471 7.50534L6.43922 7.49985L6.43372 7.49436L6.42823 7.48886L6.42273 7.48336L6.41723 7.47786L6.41172 7.47236L6.40621 7.46685L6.4007 7.46134L6.39519 7.45583L6.38968 7.45031L6.38416 7.44479L6.37864 7.43927L6.37312 7.43375L6.3676 7.42823L6.36207 7.4227L6.35654 7.41718L6.35102 7.41165L6.34549 7.40612L6.33995 7.40059L6.33442 7.39506L6.32889 7.38952L6.32335 7.38399L6.31782 7.37845L6.31228 7.37292L6.30674 7.36738L6.30121 7.36184L6.29567 7.3563L6.29013 7.35076L6.28459 7.34522L6.27905 7.33968L6.27351 7.33414L6.26797 7.3286L6.26243 7.32306L6.25689 7.31753L6.25135 7.31199L6.24581 7.30645L6.24027 7.30091L6.23474 7.29537L6.2292 7.28983L6.22366 7.2843L6.21813 7.27876L6.21259 7.27323L6.20706 7.2677L6.20153 7.26216L6.196 7.25663L6.19047 7.2511L6.18494 7.24558L6.17942 7.24005L6.17389 7.23453L6.16837 7.22901L6.16285 7.22349L6.15733 7.21797L6.15182 7.21245L6.1463 7.20694L6.14079 7.20143L6.13528 7.19592L6.12978 7.19041L6.12427 7.18491L6.11877 7.17941L6.11328 7.17391L6.10778 7.16842L6.10229 7.16293L6.0968 7.15744L6.09132 7.15195L6.08584 7.14647L6.08036 7.14099L6.07488 7.13552L6.06941 7.13005L6.06395 7.12458L6.05849 7.11912L6.05303 7.11366L6.04757 7.10821L6.04212 7.10276L6.03668 7.09731L6.03124 7.09187L6.0258 7.08643L6.02037 7.081L6.01494 7.07558L6.00952 7.07015L6.0041 7.06474L5.99869 7.05933L5.99329 7.05392L5.98788 7.04852L5.98249 7.04312L5.9771 7.03773L5.97171 7.03235L5.96634 7.02697L5.96096 7.0216L5.9556 7.01623L5.95023 7.01087L5.94488 7.00552L5.93953 7.00017L5.93419 6.99483L5.92886 6.98949L5.92353 6.98416L5.9182 6.97884L5.91289 6.97352L5.90758 6.96822L5.90228 6.96291L5.89699 6.95762L5.8917 6.95233L5.88642 6.94706L5.88115 6.94178L5.87588 6.93652L5.87063 6.93126L5.86538 6.92601L5.86014 6.92077L5.8549 6.91554L5.84968 6.91031L5.84446 6.9051L5.83925 6.89989L5.83405 6.89469L5.82886 6.8895L5.82368 6.88432L5.81851 6.87914L5.81334 6.87398L5.80818 6.86882L5.80304 6.86367L5.7979 6.85853L5.79277 6.8534L5.78765 6.84829L5.78254 6.84318L5.77744 6.83807L5.77235 6.83298L5.76727 6.8279L5.7622 6.82283L5.75714 6.81777L5.75208 6.81272L5.74704 6.80768L5.74201 6.80265L5.73699 6.79763L5.73198 6.79262L5.72698 6.78762L5.722 6.78263L5.71702 6.77765L5.71205 6.77269L5.7071 6.76773L5.70215 6.76279L5.69722 6.75785L5.6923 6.75293L5.68739 6.74802L5.68249 6.74312L5.6776 6.73824L5.67273 6.73336L5.66786 6.7285L5.66301 6.72365L5.65817 6.71881L5.65335 6.71398L5.64853 6.70916L5.64373 6.70436L5.63894 6.69957L5.63416 6.6948L5.6294 6.69003L5.62465 6.68528L5.61991 6.68054L5.61518 6.67582L5.61047 6.6711L5.60577 6.6664L5.60108 6.66172L5.59641 6.65705L5.59175 6.65239L5.58711 6.64774L5.58248 6.64311L5.57786 6.63849L5.57325 6.63389L5.56867 6.6293L5.56409 6.62472L5.55953 6.62016L5.55498 6.61562L5.55045 6.61109L5.54593 6.60657L5.54143 6.60207L5.53694 6.59758L5.53247 6.59311L5.52801 6.58865L5.52357 6.58421L5.51914 6.57978L5.51473 6.57537L5.51034 6.57097L5.50595 6.56659L5.50159 6.56222L5.49724 6.55787L5.49291 6.55354L5.48859 6.54922L5.48429 6.54492L5.48 6.54064L5.47573 6.53637L5.47148 6.53212L5.46725 6.52788L5.46303 6.52366L5.45882 6.51946L5.45464 6.51527L5.45047 6.5111L5.44632 6.50695L5.44218 6.50282L5.43807 6.4987L5.43397 6.4946L5.42988 6.49052L5.42582 6.48645L5.42177 6.48241L5.41774 6.47838L5.41373 6.47436L5.40974 6.47037L5.40576 6.4664L5.4018 6.46244L5.39787 6.4585L5.39395 6.45458L5.39004 6.45068L5.38616 6.44679L5.3823 6.44293L5.37845 6.43908L5.37462 6.43526L5.37082 6.43145L5.36703 6.42766L5.36326 6.42389L5.35951 6.42014L5.35578 6.41641L5.35207 6.4127L5.34838 6.40901C4.4697 5.53033 3.04507 5.53033 2.16639 6.40901C1.28772 7.28769 1.28772 8.71231 2.16639 9.59099C3.04507 10.4697 4.4697 10.4697 5.34838 9.59099L5.35157 9.58779L5.35479 9.58458L5.35803 9.58133L5.3613 9.57807L5.36459 9.57478L5.3679 9.57147L5.37123 9.56813L5.37459 9.56477L5.37797 9.56139L5.38137 9.55799L5.3848 9.55457L5.38825 9.55112L5.39172 9.54765L5.39521 9.54415L5.39873 9.54064L5.40226 9.5371L5.40582 9.53355L5.4094 9.52996L5.413 9.52636L5.41663 9.52274L5.42027 9.5191L5.42393 9.51543L5.42762 9.51174L5.43133 9.50804L5.43506 9.50431L5.43881 9.50056L5.44258 9.49679L5.44637 9.493L5.45018 9.48919L5.45401 9.48536L5.45786 9.4815L5.46173 9.47763L5.46562 9.47374L5.46954 9.46983L5.47347 9.4659L5.47742 9.46195L5.48139 9.45798L5.48538 9.45399L5.48939 9.44998L5.49341 9.44595L5.49746 9.44191L5.50153 9.43784L5.50561 9.43376L5.50971 9.42965L5.51384 9.42553L5.51798 9.42139L5.52213 9.41723L5.52631 9.41306L5.53051 9.40886L5.53472 9.40465L5.53895 9.40042L5.5432 9.39617L5.54746 9.3919L5.55175 9.38762L5.55605 9.38332L5.56036 9.379L5.5647 9.37467L5.56905 9.37031L5.57342 9.36595L5.57781 9.36156L5.58221 9.35716L5.58663 9.35274L5.59106 9.3483L5.59551 9.34385L5.59998 9.33938L5.60447 9.3349L5.60897 9.3304L5.61348 9.32588L5.61801 9.32135L5.62256 9.3168L5.62712 9.31224L5.6317 9.30766L5.6363 9.30307L5.6409 9.29846L5.64553 9.29384L5.65017 9.2892L5.65482 9.28454L5.65949 9.27988L5.66417 9.27519L5.66887 9.2705L5.67358 9.26579L5.67831 9.26106L5.68305 9.25632L5.6878 9.25157L5.69257 9.2468L5.69735 9.24202L5.70214 9.23722L5.70695 9.23241L5.71177 9.22759L5.71661 9.22276L5.72146 9.21791L5.72632 9.21305L5.73119 9.20817L5.73608 9.20329L5.74098 9.19839L5.74589 9.19347L5.75082 9.18855L5.75576 9.18361L5.7607 9.17866L5.76567 9.1737L5.77064 9.16873L5.77563 9.16374L5.78062 9.15874L5.78563 9.15373L5.79065 9.14871L5.79568 9.14368L5.80073 9.13864L5.80578 9.13358L5.81085 9.12852L5.81592 9.12344L5.82101 9.11835L5.82611 9.11326L5.83122 9.10815L5.83634 9.10303L5.84147 9.0979L5.84661 9.09276L5.85176 9.08761L5.85692 9.08245L5.86209 9.07728L5.86727 9.0721L5.87245 9.06691L5.87765 9.06171L5.88286 9.0565L5.88808 9.05129L5.89331 9.04606L5.89854 9.04082L5.90379 9.03558L5.90904 9.03033L5.9143 9.02506L5.91957 9.01979L5.92485 9.01451L5.93014 9.00922L5.93544 9.00393L5.94074 8.99862L5.94605 8.99331L5.95137 8.98799L5.9567 8.98266L5.96204 8.97733L5.96738 8.97199L5.97273 8.96663L5.97809 8.96128L5.98345 8.95591L5.98883 8.95054L5.99421 8.94516L5.99959 8.93977L6.00499 8.93438L6.01038 8.92898L6.01579 8.92357L6.0212 8.91816L6.02662 8.91274L6.03205 8.90732L6.03748 8.90189L6.04291 8.89645L6.04836 8.89101L6.05381 8.88556L6.05926 8.88011L6.06472 8.87465L6.07018 8.86918L6.07565 8.86371L6.08113 8.85824L6.08661 8.85276L6.09209 8.84727L6.09758 8.84178L6.10308 8.83629L6.10858 8.83079L6.11408 8.82528L6.11959 8.81978L6.1251 8.81427L6.13062 8.80875L6.13614 8.80323L6.14166 8.79771L6.14719 8.79218L6.15272 8.78665L6.15825 8.78111L6.16379 8.77558L6.16933 8.77003L6.17488 8.76449L6.18042 8.75894L6.18597 8.75339L6.19152 8.74784L6.19708 8.74228L6.20264 8.73673L6.2082 8.73117L6.21376 8.7256L6.21933 8.72004L6.22489 8.71447L6.23046 8.7089L6.23603 8.70333L6.24161 8.69776L6.24718 8.69218L6.25276 8.68661L6.25833 8.68103L6.26391 8.67545L6.26949 8.66988L6.27507 8.66429L6.28065 8.65871L6.28623 8.65313L6.29182 8.64755L6.2974 8.64196L6.30298 8.63638L6.30857 8.6308L6.31415 8.62521L6.31974 8.61963L6.32532 8.61404L6.33091 8.60846L6.33649 8.60288L6.34207 8.59729L6.34766 8.59171L6.35324 8.58613L6.35882 8.58054L6.3644 8.57496L6.36998 8.56938L6.37556 8.5638L6.38114 8.55823L6.38672 8.55265L6.39229 8.54708L6.39786 8.5415L6.40344 8.53593L6.40901 8.53036L6.41457 8.52479L6.42014 8.51923L6.4257 8.51366L6.43127 8.5081L6.43682 8.50254L6.44238 8.49698L6.44794 8.49143L6.45349 8.48588L6.45904 8.48033L6.46458 8.47478L6.47012 8.46924L6.47566 8.4637L6.4812 8.45817L6.48673 8.45263L6.49226 8.4471L6.49779 8.44158L6.50331 8.43606L6.50883 8.43054L6.51434 8.42502L6.51985 8.41951L6.52536 8.41401L6.53086 8.40851L6.53636 8.40301L6.54185 8.39752L6.54733 8.39203L6.55282 8.38655L6.5583 8.38107L6.56377 8.3756L6.56924 8.37013L6.5747 8.36467L6.58015 8.35921L6.58561 8.35376L6.59105 8.34831L6.59649 8.34287L6.60193 8.33744L6.60735 8.33201L6.61278 8.32659L6.61819 8.32117L6.6236 8.31576L6.629 8.31036L6.6344 8.30496L6.63979 8.29957L6.64517 8.29419L6.65055 8.28882L6.65592 8.28345L6.66128 8.27808L6.66664 8.27273L6.67198 8.26738L6.67732 8.26204L6.68265 8.25671L6.68798 8.25139L6.6933 8.24607L6.6986 8.24076L6.7039 8.23546L6.7092 8.23017L6.71448 8.22489L6.71976 8.21961L6.72502 8.21434L6.73028 8.20908L6.73553 8.20384L6.74077 8.19859L6.746 8.19336L6.75122 8.18814L6.75644 8.18293L6.76164 8.17772L6.76684 8.17253L6.77202 8.16734L6.7772 8.16217L6.78236 8.157L6.78752 8.15185L6.79266 8.1467L6.7978 8.14157L6.80292 8.13644L6.80803 8.13133L6.81314 8.12623L6.81823 8.12113L6.82331 8.11605L6.82839 8.11098L6.83345 8.10592L6.83849 8.10087L6.84353 8.09583L6.84856 8.09081L6.85357 8.08579L6.85858 8.08079L6.86357 8.0758L6.86855 8.07082L6.87352 8.06585L6.87847 8.06089L6.88342 8.05595L6.88835 8.05102L6.89327 8.0461L6.89818 8.04119L6.90307 8.0363L6.90795 8.03142L6.91282 8.02655L6.91767 8.02169L6.92252 8.01685L6.92735 8.01202L6.93216 8.0072L6.93696 8.0024L6.93936 7.99999Z" fill="#6F6F6F"/>
</svg>
