<svg width="16" height="16" viewBox="0 0 16 16" fill="none" xmlns="http://www.w3.org/2000/svg">
<path fill-rule="evenodd" clip-rule="evenodd" d="M3.03027 4C3.50162 4.00005 3.90436 4.32838 4.00586 4.78027L4.02148 4.87207L4.94238 12H3.42871L3.23535 10.5H1.76465L1.57129 12H0.0576172L0.978516 4.87207L0.994141 4.78027C1.09564 4.32837 1.49837 4.00004 1.96973 4H3.03027ZM1.95801 9H3.04199L2.59082 5.5H2.40918L1.95801 9Z" fill="#6F6F6F"/>
<path fill-rule="evenodd" clip-rule="evenodd" d="M7.75 4C8.99261 4.00002 9.99998 5.00738 10 6.25V6.5C9.99999 6.95349 9.86362 7.37424 9.63281 7.72754C10.1599 8.13935 10.5 8.77935 10.5 9.5V9.75C10.5 10.9926 9.49261 12 8.25 12H6.75C6.5511 12 6.36038 11.9209 6.21973 11.7803C6.0791 11.6396 6.00002 11.4489 6 11.25V4.75C6 4.55109 6.07908 4.36038 6.21973 4.21973C6.36038 4.07907 6.55109 4 6.75 4H7.75ZM7.5 10.5H8.25C8.66419 10.5 8.99997 10.1642 9 9.75V9.5C9 9.08567 8.6641 8.75 8.25 8.75C8.01397 8.75 7.76239 8.75 7.5 8.75V10.5ZM7.5 7.25H7.75C8.16418 7.24998 8.49997 6.91417 8.5 6.5V6.25C8.49999 5.8358 8.1642 5.50002 7.75 5.5H7.5V7.25Z" fill="#6F6F6F"/>
<path d="M13.75 4C14.9926 4 16 5.00736 16 6.25V6.5H14.5V6.25C14.5 5.83579 14.1642 5.5 13.75 5.5C13.3358 5.5 13 5.83579 13 6.25V9.75C13 10.1642 13.3358 10.5 13.75 10.5C14.1642 10.5 14.5 10.1642 14.5 9.75V9.5H16V9.75C16 10.9926 14.9926 12 13.75 12C12.5074 12 11.5 10.9926 11.5 9.75V6.25C11.5 5.00736 12.5074 4 13.75 4Z" fill="#6F6F6F"/>
</svg>
