<svg width="16" height="16" viewBox="0 0 16 16" fill="none" xmlns="http://www.w3.org/2000/svg">
<path d="M7.25 0V2H8.75V0H7.25Z" fill="#161616"/>
<path d="M16 7.25H14V8.75H16V7.25Z" fill="#161616"/>
<path d="M0 7.25H2V8.75H0V7.25Z" fill="#161616"/>
<path d="M13.1265 1.81281L11.7123 3.22702L12.773 4.28768L14.1872 2.87347L13.1265 1.81281Z" fill="#161616"/>
<path d="M2.8735 1.81278L4.28772 3.22699L3.22706 4.28765L1.81284 2.87344L2.8735 1.81278Z" fill="#161616"/>
<path fill-rule="evenodd" clip-rule="evenodd" d="M3.25 8.22115C3.25 5.60862 5.38178 3.5 8 3.5C10.6182 3.5 12.75 5.60862 12.75 8.22115C12.75 9.30424 12.3822 10.3036 11.765 11.0999C11.0106 12.0734 10.4342 12.8756 10.4342 13.7437V15.25C10.4342 15.6642 10.0984 16 9.68421 16H6.31579C5.90158 16 5.56579 15.6642 5.56579 15.25V13.7437C5.56579 12.8756 4.9894 12.0734 4.23497 11.0999C3.61785 10.3036 3.25 9.30424 3.25 8.22115ZM7.06579 13.7437C7.06579 13.4879 7.03662 13.2398 6.98484 13H9.01515C8.96338 13.2398 8.93421 13.4879 8.93421 13.7437V14.5H7.06579V13.7437Z" fill="#161616"/>
</svg>
