<svg width="17" height="16" viewBox="0 0 17 16" fill="none" xmlns="http://www.w3.org/2000/svg">
<path d="M13.75 10.1248L14.957 8.85726L16.043 9.89242L13 13.0877L9.95703 9.89242L11.043 8.85726L12.25 10.1248V5.99984H13.75V10.1248Z" fill="#6F6F6F"/>
<path d="M7.74316 3.29672C7.95116 3.06688 8.28003 2.98821 8.56934 3.09945C8.85869 3.21092 9.04968 3.48959 9.0498 3.79965V12.9998H7.5498V5.74594L5.05566 8.50277C4.91238 8.66107 4.70862 8.75118 4.49512 8.74984C4.28153 8.74837 4.0787 8.65524 3.9375 8.49496L1.5498 5.785V12.9998H0.0498047V3.79965C0.0499261 3.48779 0.243408 3.20868 0.535156 3.09847C0.826761 2.98841 1.15606 3.06992 1.3623 3.30355L4.50684 6.87289L7.74316 3.29672Z" fill="#6F6F6F"/>
</svg>
