<svg width="16" height="16" viewBox="0 0 16 16" fill="none" xmlns="http://www.w3.org/2000/svg">
<g clip-path="url(#clip0_29724_7960)">
<path fill-rule="evenodd" clip-rule="evenodd" d="M10.4586 1.56207C10.1365 1.24858 9.70479 1.07317 9.25531 1.07317C8.80583 1.07317 8.37409 1.24858 8.05198 1.56207L1.63465 7.8554C1.52726 7.95978 1.3834 8.01817 1.23365 8.01817C1.08389 8.01817 0.940035 7.95978 0.832647 7.8554C0.780072 7.80427 0.73828 7.74312 0.709744 7.67556C0.681207 7.608 0.666504 7.5354 0.666504 7.46207C0.666504 7.38873 0.681207 7.31613 0.709744 7.24857C0.73828 7.18102 0.780072 7.11986 0.832647 7.06873L7.24998 0.7754C7.78679 0.252996 8.50627 -0.0393066 9.25531 -0.0393066C10.0044 -0.0393066 10.7238 0.252996 11.2606 0.7754C11.5713 1.07747 11.8059 1.4488 11.9454 1.85899C12.0849 2.26919 12.1253 2.70659 12.0633 3.1354C12.4978 3.0736 12.9407 3.11239 13.3578 3.24878C13.775 3.38517 14.1552 3.61552 14.4693 3.92207L14.5026 3.9554C14.7655 4.21105 14.9745 4.51681 15.1172 4.85461C15.2598 5.1924 15.3334 5.55537 15.3334 5.92207C15.3334 6.28876 15.2598 6.65173 15.1172 6.98952C14.9745 7.32732 14.7655 7.63308 14.5026 7.88873L8.69865 13.5801C8.68113 13.5971 8.6672 13.6175 8.65769 13.64C8.64818 13.6625 8.64328 13.6866 8.64328 13.7111C8.64328 13.7355 8.64818 13.7597 8.65769 13.7822C8.6672 13.8047 8.68113 13.825 8.69865 13.8421L9.89065 15.0114C9.94322 15.0625 9.98501 15.1237 10.0135 15.1912C10.0421 15.2588 10.0568 15.3314 10.0568 15.4047C10.0568 15.4781 10.0421 15.5507 10.0135 15.6182C9.98501 15.6858 9.94322 15.7469 9.89065 15.7981C9.78326 15.9024 9.6394 15.9608 9.48965 15.9608C9.33989 15.9608 9.19604 15.9024 9.08865 15.7981L7.89665 14.6294C7.77387 14.5101 7.67628 14.3674 7.60963 14.2097C7.54299 14.052 7.50865 13.8826 7.50865 13.7114C7.50865 13.5402 7.54299 13.3708 7.60963 13.2131C7.67628 13.0554 7.77387 12.9127 7.89665 12.7934L13.7006 7.1014C13.8583 6.94796 13.9836 6.76449 14.0691 6.56182C14.1547 6.35915 14.1988 6.14139 14.1988 5.9214C14.1988 5.70141 14.1547 5.48365 14.0691 5.28098C13.9836 5.07831 13.8583 4.89484 13.7006 4.7414L13.6673 4.70873C13.3456 4.39557 12.9144 4.22018 12.4654 4.2198C12.0164 4.21943 11.5849 4.39411 11.2626 4.70673L6.48131 9.39607L6.47998 9.3974L6.41465 9.46207C6.30723 9.56664 6.16323 9.62516 6.01331 9.62516C5.8634 9.62516 5.7194 9.56664 5.61198 9.46207C5.5594 9.41094 5.51761 9.34978 5.48908 9.28222C5.46054 9.21467 5.44584 9.14207 5.44584 9.06873C5.44584 8.99539 5.46054 8.9228 5.48908 8.85524C5.51761 8.78768 5.5594 8.72653 5.61198 8.6754L10.4606 3.92007C10.6179 3.76653 10.7427 3.58307 10.8279 3.38051C10.9131 3.17796 10.9569 2.96039 10.9568 2.74065C10.9566 2.5209 10.9124 2.30341 10.8269 2.101C10.7413 1.89858 10.6161 1.71534 10.4586 1.56207Z" fill="#6F6F6F"/>
<path fill-rule="evenodd" clip-rule="evenodd" d="M9.65665 3.1354C9.70922 3.08427 9.75101 3.02312 9.77955 2.95556C9.80809 2.888 9.82279 2.81541 9.82279 2.74207C9.82279 2.66873 9.80809 2.59613 9.77955 2.52858C9.75101 2.46102 9.70922 2.39986 9.65665 2.34873C9.54923 2.24416 9.40523 2.18564 9.25531 2.18564C9.1054 2.18564 8.9614 2.24416 8.85398 2.34873L4.10798 7.0034C3.8451 7.25905 3.63615 7.56481 3.49346 7.90261C3.35078 8.2404 3.27726 8.60337 3.27726 8.97007C3.27726 9.33676 3.35078 9.69973 3.49346 10.0375C3.63615 10.3753 3.8451 10.6811 4.10798 10.9367C4.64487 11.459 5.36432 11.7512 6.11331 11.7512C6.86231 11.7512 7.58176 11.459 8.11865 10.9367L12.8653 6.28207C12.9179 6.23094 12.9597 6.16978 12.9882 6.10223C13.0168 6.03467 13.0315 5.96207 13.0315 5.88873C13.0315 5.8154 13.0168 5.7428 12.9882 5.67524C12.9597 5.60768 12.9179 5.54653 12.8653 5.4954C12.7579 5.39082 12.6139 5.3323 12.464 5.3323C12.3141 5.3323 12.1701 5.39082 12.0626 5.4954L7.31665 10.1501C6.99453 10.4636 6.5628 10.639 6.11331 10.639C5.66383 10.639 5.23209 10.4636 4.90998 10.1501C4.75234 9.99663 4.62704 9.81316 4.54148 9.61049C4.45592 9.40782 4.41184 9.19006 4.41184 8.97007C4.41184 8.75008 4.45592 8.53232 4.54148 8.32965C4.62704 8.12698 4.75234 7.94351 4.90998 7.79007L9.65665 3.1354Z" fill="#6F6F6F"/>
</g>
<defs>
<clipPath id="clip0_29724_7960">
<rect width="16" height="16" fill="white"/>
</clipPath>
</defs>
</svg>
