<svg width="16" height="16" viewBox="0 0 14.8357 14.8357" fill="none" xmlns="http://www.w3.org/2000/svg">
<path d="M7.31836 2.33573H2.75C2.05964 2.33573 1.5 2.89537 1.5 3.58573V12.0857C1.50011 12.776 2.05971 13.3357 2.75 13.3357H11.25C11.9403 13.3357 12.4999 12.776 12.5 12.0857V7.51737L14 6.01737V12.0857C13.9999 13.6044 12.7687 14.8357 11.25 14.8357H2.75C1.23129 14.8357 0.000112755 13.6044 0 12.0857V3.58573C0 2.06695 1.23122 0.835729 2.75 0.835729H8.81836L7.31836 2.33573Z" fill="currentColor"/>
<path fill-rule="evenodd" clip-rule="evenodd" d="M11.2627 0.512487C11.9461 -0.170828 13.0539 -0.17083 13.7373 0.512487L14.3232 1.09842C15.0065 1.78183 15.0065 2.88967 14.3232 3.57303L8.28027 9.616C8.13963 9.75659 7.94886 9.83573 7.75 9.83573H5.75C5.33586 9.83573 5.00011 9.49985 5 9.08573V7.08573C5 6.88687 5.07914 6.6961 5.21973 6.55546L11.2627 0.512487ZM6.5 7.39628V8.33573H7.43945L11.4395 4.33573L10.5 3.39628L6.5 7.39628ZM12.6768 1.57303C12.5791 1.4755 12.4209 1.4755 12.3232 1.57303L11.5605 2.33573L12.5 3.27518L13.2627 2.51249C13.3602 2.41491 13.3601 2.25659 13.2627 2.15897L12.6768 1.57303Z" fill="currentColor"/>
</svg>
