<svg width="16" height="16" viewBox="0 0 16 16" fill="none" xmlns="http://www.w3.org/2000/svg">
<path d="M2.73828 10.5H4V12H0V10.5H1.23828V6.29004C0.931876 6.42406 0.5941 6.49997 0.238281 6.5H0V5H0.238281C0.790467 4.99988 1.23828 4.55221 1.23828 4H2.73828V10.5Z" fill="#6F6F6F"/>
<path d="M7.75 4C8.99263 4 9.99998 5.00737 10 6.25V6.54199C9.99996 7.5664 9.42112 8.50276 8.50488 8.96094L7.69141 9.36816C7.26794 9.5799 7.00001 10.0129 7 10.4863V10.5H10V12H5.5V10.4863C5.50001 9.44472 6.08886 8.49219 7.02051 8.02637L7.83398 7.61914C8.24204 7.41506 8.49996 6.99824 8.5 6.54199V6.25C8.49998 5.8358 8.1642 5.5 7.75 5.5C7.3358 5.5 7.00002 5.8358 7 6.25V6.5H5.5V6.25C5.50002 5.00737 6.50737 4 7.75 4Z" fill="#6F6F6F"/>
<path d="M13.6152 4C14.9307 4.00047 15.9999 5.07045 16 6.38574C15.9999 7.01291 15.754 7.58014 15.3564 8.00293C15.7545 8.4276 16 8.99703 16 9.625C16 10.9367 14.9367 12 13.625 12C12.3133 12 11.25 10.9367 11.25 9.625V9.5H12.75V9.625C12.75 10.1082 13.1418 10.5 13.625 10.5C14.1082 10.5 14.5 10.1083 14.5 9.625C14.4999 9.14179 14.1082 8.75003 13.625 8.75H13.0029L13 8L12.9961 7.25H13.6289C14.1105 7.24982 14.5 6.86054 14.5 6.37891C14.5 5.89427 14.1056 5.50017 13.6211 5.5C13.1398 5.50016 12.7505 5.88895 12.75 6.37012V6.50293L11.25 6.49707V6.36426C11.2502 5.05697 12.3078 4 13.6152 4Z" fill="#6F6F6F"/>
</svg>
