<svg width="16" height="16" viewBox="0 0 16 16" fill="none" xmlns="http://www.w3.org/2000/svg">
<path fill-rule="evenodd" clip-rule="evenodd" d="M5.2168 1C5.93001 1 6.61612 1.27676 7.12891 1.77246L7.70898 2.33301H13.25L13.3271 2.33691C13.705 2.37551 13.9998 2.69498 14 3.08301V9.75C14 10.1642 13.6642 10.5 13.25 10.5H8.75V11.6309C9.38859 11.8569 9.89313 12.3614 10.1191 13H14V14.5H10.1191C9.81001 15.3734 8.97933 16 8 16C7.02067 16 6.18999 15.3734 5.88086 14.5H2V13H5.88086C6.10687 12.3614 6.61141 11.8569 7.25 11.6309V10.5H2.75C2.33579 10.5 2 10.1642 2 9.75V1.75L2.00391 1.67285C2.04253 1.29488 2.36183 1 2.75 1H5.2168ZM8 13C7.58579 13 7.25 13.3358 7.25 13.75C7.25 14.1642 7.58579 14.5 8 14.5C8.41421 14.5 8.75 14.1642 8.75 13.75C8.75 13.3358 8.41421 13 8 13ZM3.5 9H12.5V3.83301H7.40527C7.25947 3.83301 7.11771 3.79109 6.99707 3.71289L6.88379 3.62305L6.08594 2.85156C5.85285 2.62625 5.54098 2.5 5.2168 2.5H3.5V9Z" fill="#6F6F6F"/>
</svg>
