<svg width="16" height="16" viewBox="0 0 16 16" fill="none" xmlns="http://www.w3.org/2000/svg">
  <path fill-rule="evenodd" clip-rule="evenodd" d="M13 1C14.6569 1 16 2.34315 16 4V12C16 13.6569 14.6569 15 13 15H3C1.34315 15 0 13.6569 0 12V4C0 2.34315 1.34315 1 3 1H13ZM3 2.5C2.17157 2.5 1.5 3.17157 1.5 4V12C1.5 12.8284 2.17157 13.5 3 13.5H13C13.8284 13.5 14.5 12.8284 14.5 12V4C14.5 3.17157 13.8284 2.5 13 2.5H3Z" fill="currentColor"/>
  <path d="M4.75 3.25C5.16421 3.25 5.5 3.58579 5.5 4V12C5.5 12.4142 5.16421 12.75 4.75 12.75C4.33579 12.75 4 12.4142 4 12V4C4 3.58579 4.33579 3.25 4.75 3.25Z" fill="currentColor"/>
</svg>
