<svg width="16" height="16" viewBox="0 0 16 16" fill="none" xmlns="http://www.w3.org/2000/svg">
  <g transform="translate(0, 1)">
    <path fill-rule="evenodd" clip-rule="evenodd" d="M13 0C14.6569 0 16 1.34315 16 3V11L15.9961 11.1543C15.9158 12.7394 14.6051 14 13 14H3L2.8457 13.9961C1.31166 13.9184 0.0816253 12.6883 0.00390625 11.1543L0 11V3C1.28853e-07 1.34315 1.34315 0 3 0H13ZM3 1.5C2.17157 1.5 1.5 2.17157 1.5 3V11C1.5 11.8284 2.17157 12.5 3 12.5H4.5V1.5H3ZM6 12.5H13C13.8284 12.5 14.5 11.8284 14.5 11V3C14.5 2.17157 13.8284 1.5 13 1.5H6V12.5Z" fill="currentColor"/>
  </g>
</svg>
