<svg width="16" height="16" viewBox="0 0 16 16" fill="none" xmlns="http://www.w3.org/2000/svg">
<path fill-rule="evenodd" clip-rule="evenodd" d="M11.5 0.939453L10.9697 1.46978L7.46967 4.96978L8.53033 6.03044L10.75 3.81077V6.00011V10.0001L10.75 12.1895L8.53033 9.96978L7.46967 11.0304L10.9697 14.5304L11.5 15.0608L12.0303 14.5304L15.5303 11.0304L14.4697 9.96978L12.25 12.1895L12.25 10.0001V6.00011V3.81077L14.4697 6.03044L15.5303 4.96978L12.0303 1.46978L11.5 0.939453ZM6 3.50011H1V5.00011H6V3.50011ZM6 11.5001H1V13.0001H6V11.5001ZM1 7.50011H6V9.00011H1V7.50011Z" fill="#6F6F6F"/>
</svg>
