<svg width="32" height="32" viewBox="0 0 32 32" fill="none" xmlns="http://www.w3.org/2000/svg">
<g clip-path="url(#clip0_1099_5464)">
<path fill-rule="evenodd" clip-rule="evenodd" d="M0 5.5C0 4.67158 0.671572 4 1.5 4H16V7H3V25H29V20H32V26.5C32 27.3284 31.3284 28 30.5 28H1.5C0.671572 28 0 27.3284 0 26.5V5.5ZM25.974 5.22188C25.8402 4.51322 25.2212 4 24.5 4C23.7788 4 23.1598 4.51322 23.026 5.22188L22.7516 6.67644C22.4572 8.23672 21.2368 9.45718 19.6764 9.75156L18.2219 10.026C17.5132 10.1597 17 10.7788 17 11.5C17 12.2212 17.5132 12.8403 18.2219 12.974L19.6764 13.2484C21.2368 13.5428 22.4572 14.7633 22.7516 16.3236L23.026 17.7781C23.1598 18.4868 23.7788 19 24.5 19C25.2212 19 25.8402 18.4868 25.974 17.7781L26.2484 16.3236C26.5428 14.7633 27.7632 13.5428 29.3236 13.2484L30.7782 12.974C31.4868 12.8403 32 12.2212 32 11.5C32 10.7788 31.4868 10.1597 30.7782 10.026L29.3236 9.75156C27.7632 9.45718 26.5428 8.23672 26.2484 6.67644L25.974 5.22188Z" fill="#92A4B3"/>
</g>
<defs>
<clipPath id="clip0_1099_5464">
<rect width="32" height="32" fill="white"/>
</clipPath>
</defs>
</svg>
