<svg width="16" height="16" viewBox="0 0 16 16" fill="none" xmlns="http://www.w3.org/2000/svg">
<path d="M5.74902 7.82031C6.05467 7.67262 6.42277 7.74884 6.64453 8.00586L6.64551 8.00879C6.64551 8.00879 6.6491 8.01201 6.65137 8.01465C6.65627 8.02034 6.66352 8.02918 6.67285 8.04004C6.69163 8.06188 6.71903 8.09407 6.75391 8.13477C6.8239 8.21645 6.92478 8.33298 7.0459 8.47559C7.2885 8.76123 7.61665 9.15036 7.95508 9.56055C8.29258 9.96962 8.64421 10.4046 8.93457 10.7822C9.20668 11.1361 9.4765 11.5052 9.59863 11.751C10.0281 12.6163 9.67476 13.6667 8.80957 14.0967C7.94434 14.5265 6.89415 14.1735 6.46387 13.3086C6.33818 13.0557 6.21171 12.6082 6.10156 12.1758C5.98334 11.7116 5.85937 11.1628 5.74707 10.6416C5.63443 10.1188 5.5327 9.61684 5.45898 9.24707C5.42218 9.06246 5.39176 8.91002 5.37109 8.80371C5.36078 8.75066 5.35313 8.70812 5.34766 8.67969C5.345 8.66586 5.3432 8.6548 5.3418 8.64746C5.34109 8.64388 5.33984 8.63867 5.33984 8.63867V8.63672L5.33887 8.63574L5.32617 8.51172C5.3199 8.22236 5.48181 7.94968 5.74902 7.82031Z" fill="#6F6F6F"/>
<path d="M8 1C12.4183 1 16 4.58172 16 9C16 10.4577 15.6079 11.823 14.9268 13H13.1211C13.8396 12.0814 14.3153 10.9652 14.4551 9.74609L12.502 9.75L12.498 8.25L14.4551 8.24609C14.3126 7.01295 13.8254 5.88574 13.0918 4.96191L11.7139 6.34668L10.6504 5.28906L12.0303 3.90234C11.1057 3.17033 9.97833 2.68372 8.74512 2.54297V4.5H7.24512V2.54395C6.0147 2.68626 4.88941 3.17224 3.9668 3.90332L5.34668 5.28906L4.2832 6.34668L2.90527 4.96484C2.17305 5.88809 1.68623 7.01434 1.54395 8.24609L3.50195 8.25L3.49805 9.75L1.54395 9.74609C1.68374 10.9652 2.16033 12.0813 2.87891 13H1.07324C0.392099 11.823 0 10.4577 0 9C0 4.58172 3.58172 1 8 1Z" fill="#6F6F6F"/>
</svg>
