<svg width="16" height="16" viewBox="0 0 16 16" fill="none" xmlns="http://www.w3.org/2000/svg">
<path fill-rule="evenodd" clip-rule="evenodd" d="M0 7C0 3.68629 2.68629 1 6 1H10C13.3137 1 16 3.68629 16 7C16 10.2934 13.3466 12.967 10.061 12.9997L7.28033 15.7803C7.06583 15.9948 6.74324 16.059 6.46299 15.9429C6.18273 15.8268 6 15.5533 6 15.25V13C2.68629 13 0 10.3137 0 7ZM10.75 7.75C11.1642 7.75 11.5 7.41421 11.5 7C11.5 6.58579 11.1642 6.25 10.75 6.25C10.3358 6.25 10 6.58579 10 7C10 7.41421 10.3358 7.75 10.75 7.75ZM8.75 7C8.75 7.41421 8.41421 7.75 8 7.75C7.58579 7.75 7.25 7.41421 7.25 7C7.25 6.58579 7.58579 6.25 8 6.25C8.41421 6.25 8.75 6.58579 8.75 7ZM6 7C6 7.41421 5.66421 7.75 5.25 7.75C4.83579 7.75 4.5 7.41421 4.5 7C4.5 6.58579 4.83579 6.25 5.25 6.25C5.66421 6.25 6 6.58579 6 7Z" fill="#161616"/>
</svg>
