<svg width="16" height="16" viewBox="0 0 16 16" fill="none" xmlns="http://www.w3.org/2000/svg">
<path d="M4.125 8.2627C4.12514 9.98095 5.26425 11.3909 6.71973 11.9131C7.94326 12.3518 9.37462 12.1665 10.5908 11.1182V12.6221H11.875V8.66602H7.75098V9.99023H9.88965C8.9767 10.8522 7.95942 10.9548 7.14258 10.6621C6.13896 10.3023 5.40932 9.35048 5.40918 8.2627H4.125Z" fill="#6F6F6F"/>
<path d="M4.125 7.33398H8.24902V6.00977H6.11035C7.02338 5.14777 8.04054 5.04515 8.85742 5.33789C9.86101 5.6977 10.5906 6.64956 10.5908 7.7373H11.875C11.8748 6.01893 10.735 4.60896 9.2793 4.08691C8.0558 3.64835 6.62434 3.83357 5.4082 4.88184V3.37793H4.125V7.33398Z" fill="#6F6F6F"/>
</svg>
