<svg width="16" height="16" viewBox="0 0 16 16" fill="none" xmlns="http://www.w3.org/2000/svg">
<path fill-rule="evenodd" clip-rule="evenodd" d="M12 8C14.2091 8 16 9.79086 16 12C16 14.2091 14.2091 16 12 16C9.79086 16 8 14.2091 8 12C8 9.79086 9.79086 8 12 8ZM11.25 12.3105L12.9697 14.0303L14.0303 12.9697L12.75 11.6895V9.5H11.25V12.3105Z" fill="#6F6F6F"/>
<path fill-rule="evenodd" clip-rule="evenodd" d="M14.3271 1.00391C14.7051 1.04253 15 1.36183 15 1.75V7H6.5V15H1.75C1.33579 15 1 14.6642 1 14.25V1.75L1.00391 1.67285C1.04253 1.29488 1.36183 1 1.75 1H14.25L14.3271 1.00391ZM2.5 13.5H5V7H2.5V13.5ZM2.5 5.5H13.5V2.5H2.5V5.5Z" fill="#6F6F6F"/>
</svg>
