<svg width="16" height="16" viewBox="0 0 16 16" fill="none" xmlns="http://www.w3.org/2000/svg">
<path fill-rule="evenodd" clip-rule="evenodd" d="M7.5 1V2.58936L12.3803 7.46967C12.521 7.61032 12.6 7.80109 12.6 8C12.6 8.19891 12.521 8.38968 12.3803 8.53033L8.13766 12.773C7.06372 13.8469 5.32252 13.8469 4.24857 12.773L1.827 10.3514C0.75306 9.27746 0.75306 7.53625 1.827 6.46231L6 2.28932V1H7.5ZM6 8V4.41064L2.88766 7.52297C2.39951 8.01113 2.39951 8.80258 2.88766 9.29074L5.30923 11.7123C5.79739 12.2005 6.58885 12.2005 7.077 11.7123L10.7893 8L7.5 4.71068V8H6Z" fill="#6F6F6F"/>
<path fill-rule="evenodd" clip-rule="evenodd" d="M13.2698 9.50966C12.9707 9.20195 12.4765 9.20271 12.1784 9.51128C12.0949 9.59769 11.4376 10.2874 10.9622 11.1471C10.7256 11.5749 10.5028 12.0996 10.4515 12.6483C10.3977 13.2237 10.5348 13.8455 11.0387 14.3494C11.9699 15.2806 13.4798 15.2806 14.411 14.3494C14.9157 13.8447 15.0548 13.223 15.0014 12.6459C14.9506 12.0961 14.7272 11.5711 14.49 11.1433C14.0133 10.284 13.3536 9.59587 13.2698 9.50966ZM12.2748 11.873C12.4135 11.6223 12.5748 11.386 12.7264 11.1844C12.8781 11.3854 13.0396 11.6209 13.1783 11.8709C13.3682 12.2135 13.4841 12.5284 13.5078 12.784C13.5289 13.0123 13.4777 13.1614 13.3504 13.2887C13.0049 13.6342 12.4448 13.6342 12.0994 13.2887C11.9749 13.1643 11.9236 13.017 11.945 12.7879C11.9689 12.5319 12.085 12.2162 12.2748 11.873Z" fill="#6F6F6F"/>
</svg>
