<svg width="16" height="16" viewBox="0 0 16 16" fill="none" xmlns="http://www.w3.org/2000/svg">
<g clip-path="url(#clip0_12461_34615)">
<path fill-rule="evenodd" clip-rule="evenodd" d="M5.19703 3.47313C5.08369 3.18779 4.80788 3.00035 4.50085 3C4.19383 2.99966 3.9176 3.18648 3.80361 3.47156L-0.00610352 13H1.60935L2.20909 11.5H6.77148L7.36731 13H8.98132L5.19703 3.47313ZM6.17565 10L4.49774 5.77589L2.80883 10H6.17565ZM10.2453 7.61516C10.8392 7.40963 11.4185 7.25 12 7.25C12.6583 7.25 13.2176 7.67409 13.4195 8.26397C12.9817 8.08479 12.4936 8 12 8C11.2586 8 10.5294 8.19134 9.96471 8.60658C9.38101 9.03582 9.00003 9.69037 9.00003 10.5C9.00003 11.3096 9.38101 11.9642 9.96471 12.3934C10.5294 12.8087 11.2586 13 12 13C12.5241 13 13.042 12.9044 13.5 12.7018V13H15V8.75C15 7.09315 13.6569 5.75 12 5.75C11.1593 5.75 10.3858 5.97928 9.75477 6.19763L10.2453 7.61516ZM13.5 10.5C13.5 10.2051 13.3773 9.98461 13.1467 9.815C12.897 9.63138 12.5012 9.5 12 9.5C11.4988 9.5 11.1031 9.63138 10.8534 9.815C10.6227 9.98461 10.5 10.2051 10.5 10.5C10.5 10.7949 10.6227 11.0154 10.8534 11.185C11.1031 11.3686 11.4988 11.5 12 11.5C12.5012 11.5 12.897 11.3686 13.1467 11.185C13.3773 11.0154 13.5 10.7949 13.5 10.5Z" fill="#6F6F6F"/>
</g>
<defs>
<clipPath id="clip0_12461_34615">
<rect width="16" height="16" fill="white"/>
</clipPath>
</defs>
</svg>
