<svg width="16" height="16" viewBox="0 0 16 16" fill="none" xmlns="http://www.w3.org/2000/svg">
<g clip-path="url(#clip0_16319_32211)">
<path fill-rule="evenodd" clip-rule="evenodd" d="M6.64802 1.02877C6.76839 0.757924 7.03698 0.583374 7.33337 0.583374C8.06272 0.583374 8.76219 0.873105 9.27792 1.38883C9.79364 1.90456 10.0834 2.60403 10.0834 3.33337V5.25004H13.1029C13.4033 5.24732 13.7008 5.30959 13.9749 5.43261C14.2504 5.55627 14.4957 5.73835 14.6939 5.96625C14.8921 6.19415 15.0383 6.4624 15.1225 6.75243C15.2067 7.04247 15.2269 7.34734 15.1815 7.64592L14.2616 13.6458C14.1861 14.1424 13.9337 14.5955 13.551 14.9208C13.1694 15.2452 12.6837 15.4212 12.1829 15.4167H2.66671C2.11417 15.4167 1.58427 15.1972 1.19357 14.8065C0.802867 14.4158 0.583374 13.8859 0.583374 13.3334V8.66671C0.583374 8.11417 0.802867 7.58427 1.19357 7.19357C1.58427 6.80287 2.11417 6.58337 2.66671 6.58337H4.1793L6.64802 1.02877ZM3.91671 8.08337H2.66671C2.512 8.08337 2.36362 8.14483 2.25423 8.25423C2.14483 8.36363 2.08337 8.512 2.08337 8.66671V13.3334C2.08337 13.4881 2.14483 13.6365 2.25423 13.7459C2.36362 13.8552 2.512 13.9167 2.66671 13.9167H3.91671V8.08337ZM5.41671 13.9167H12.1952C12.3359 13.9183 12.4724 13.869 12.5796 13.7779C12.6868 13.6868 12.7574 13.56 12.7785 13.4209L13.6985 7.42083C13.7111 7.33745 13.7055 7.25163 13.682 7.17065C13.6584 7.08944 13.6175 7.01433 13.562 6.95052C13.5065 6.88671 13.4378 6.83572 13.3607 6.8011C13.2835 6.76647 13.1998 6.74904 13.1152 6.74999L13.1067 6.75009L9.33337 6.75004C8.91916 6.75004 8.58337 6.41425 8.58337 6.00004V3.33337C8.58337 3.00185 8.45168 2.68391 8.21726 2.44949C8.09274 2.32498 7.94467 2.22944 7.78351 2.16723L5.41671 7.49253V13.9167Z" fill="#6F6F6F"/>
</g>
<defs>
<clipPath id="clip0_16319_32211">
<rect width="16" height="16" fill="white"/>
</clipPath>
</defs>
</svg>
