<svg viewBox="0 0 8.47721 10.8088" fill="none" xmlns="http://www.w3.org/2000/svg">
  <path fill-rule="evenodd" clip-rule="evenodd" d="M3.07652 0.0971169C3.18291 0.03356 3.30454 0 3.42847 0C3.54431 0 3.65812 0.029315 3.75938 0.0850366C5.48356 0.886092 6.78879 2.1702 7.58448 3.58119C8.20921 4.68903 8.51984 5.87509 8.4725 6.96698C8.42664 8.01039 8.05304 8.97577 7.32932 9.68104C6.60559 10.3863 5.5658 10.7987 4.24932 10.8012C3.72051 10.8338 3.19045 10.7611 2.68985 10.5874C2.18528 10.4123 1.72083 10.138 1.32383 9.78071C0.926843 9.42341 0.60532 8.99028 0.378205 8.5069C0.151081 8.02352 0.0229429 7.49955 0.00133308 6.96588L0.00110143 6.96012C-0.014664 6.3426 0.139076 5.73257 0.445551 5.19624C0.752019 4.65991 1.19956 4.21778 1.73958 3.91786C1.83447 3.86516 1.94716 3.85484 2.05005 3.88943C2.15293 3.92403 2.23649 4.00034 2.28027 4.09966C2.46844 4.52668 2.73197 4.91512 3.05726 5.24687C3.43894 4.74892 3.61455 4.10555 3.60936 3.39868C3.60318 2.55665 3.33867 1.6547 2.89592 0.886699C2.82344 0.765723 2.79696 0.622587 2.8215 0.483556C2.84643 0.342278 2.92231 0.215045 3.03475 0.125952C3.04803 0.115435 3.06198 0.105803 3.07652 0.0971169Z" fill="#000000"/>
</svg>

