<svg width="16" height="16" viewBox="0 0 16 16" fill="none" xmlns="http://www.w3.org/2000/svg">
<path d="M3.49414 9.02637C3.14679 9.58197 3.04134 10.179 3.01172 10.6455C2.43466 10.838 2.09621 11.1921 1.88281 11.5273C1.71483 11.7913 1.61588 12.0611 1.55957 12.2676C1.5329 12.3654 1.51716 12.4458 1.50781 12.5H3V14H0.75C0.335791 14 3.1602e-06 13.6642 0 13.25V12.5C3.74657e-07 12.4773 0.000877738 12.4542 0.00292969 12.4316L0.00390625 12.4287C0.00403671 12.4273 0.00373723 12.4255 0.00390625 12.4238C0.00425354 12.4203 0.00435851 12.416 0.00488281 12.4111C0.00593062 12.4015 0.0078854 12.3888 0.00976562 12.374C0.0135301 12.3445 0.0192388 12.3048 0.0273438 12.2568C0.0435969 12.1606 0.0698418 12.0288 0.112305 11.873C0.196606 11.5639 0.347796 11.1461 0.617188 10.7227C1.12277 9.92817 2.01779 9.16898 3.49414 9.02637Z" fill="#6F6F6F"/>
<path fill-rule="evenodd" clip-rule="evenodd" d="M8 7.5C9.78185 7.5 10.8219 8.34118 11.3828 9.22266C11.6522 9.64605 11.8034 10.0639 11.8877 10.373C11.9302 10.5288 11.9564 10.6606 11.9727 10.7568C11.9808 10.8048 11.9865 10.8445 11.9902 10.874C11.9921 10.8888 11.9941 10.9015 11.9951 10.9111C11.9956 10.916 11.9957 10.9203 11.9961 10.9238C11.9963 10.9255 11.996 10.9273 11.9961 10.9287L11.9971 10.9307L12 11V13.25C12 13.4489 11.9209 13.6396 11.7803 13.7803C11.6396 13.9209 11.4489 14 11.25 14H4.75C4.33579 14 4 13.6642 4 13.25V11C4 10.9773 4.00088 10.9542 4.00293 10.9316L4.00391 10.9287C4.00404 10.9273 4.00374 10.9255 4.00391 10.9238C4.00425 10.9203 4.00436 10.916 4.00488 10.9111C4.00593 10.9015 4.00789 10.8888 4.00977 10.874C4.01353 10.8445 4.01924 10.8048 4.02734 10.7568C4.0436 10.6606 4.06984 10.5288 4.1123 10.373C4.19661 10.0639 4.3478 9.64606 4.61719 9.22266C5.17813 8.34118 6.21815 7.5 8 7.5ZM8 9C6.78206 9 6.19691 9.53389 5.88281 10.0273C5.71483 10.2913 5.61588 10.5611 5.55957 10.7676C5.53176 10.8695 5.515 10.9527 5.50586 11.0068C5.50339 11.0215 5.50146 11.0339 5.5 11.0439V12.5H10.5V11.0439C10.4985 11.0339 10.4966 11.0215 10.4941 11.0068C10.485 10.9527 10.4682 10.8695 10.4404 10.7676C10.3841 10.5611 10.2852 10.2913 10.1172 10.0273C9.80309 9.53389 9.21794 9 8 9ZM5.49609 11.0713L5.49707 11.0703V11.0684L5.49609 11.0674C5.49589 11.069 5.4962 11.0704 5.49609 11.0713Z" fill="#6F6F6F"/>
<path d="M12.5049 9.02539C13.9819 9.16774 14.8771 9.92798 15.3828 10.7227C15.6522 11.1461 15.8034 11.5639 15.8877 11.873C15.9302 12.0288 15.9564 12.1606 15.9727 12.2568C15.9808 12.3048 15.9865 12.3445 15.9902 12.374C15.9921 12.3888 15.9941 12.4015 15.9951 12.4111C15.9956 12.416 15.9957 12.4203 15.9961 12.4238C15.9963 12.4255 15.996 12.4273 15.9961 12.4287L15.9971 12.4307C15.9991 12.4532 16 12.4773 16 12.5V13.25C16 13.6642 15.6642 14 15.25 14H13V12.5H14.4922C14.4828 12.4458 14.4671 12.3654 14.4404 12.2676C14.3841 12.0611 14.2852 11.7913 14.1172 11.5273C13.9037 11.1919 13.5649 10.8379 12.9873 10.6455C12.9577 10.1787 12.8528 9.5813 12.5049 9.02539Z" fill="#6F6F6F"/>
<path fill-rule="evenodd" clip-rule="evenodd" d="M2.75 3.5C3.99264 3.5 5 4.50736 5 5.75C5 6.99264 3.99264 8 2.75 8C1.50736 8 0.5 6.99264 0.5 5.75C0.5 4.50736 1.50736 3.5 2.75 3.5ZM2.75 5C2.33579 5 2 5.33579 2 5.75C2 6.16421 2.33579 6.5 2.75 6.5C3.16421 6.5 3.5 6.16421 3.5 5.75C3.5 5.33579 3.16421 5 2.75 5Z" fill="#6F6F6F"/>
<path fill-rule="evenodd" clip-rule="evenodd" d="M13.25 3.5C14.4926 3.5 15.5 4.50736 15.5 5.75C15.5 6.99264 14.4926 8 13.25 8C12.0074 8 11 6.99264 11 5.75C11 4.50736 12.0074 3.5 13.25 3.5ZM13.25 5C12.8358 5 12.5 5.33579 12.5 5.75C12.5 6.16421 12.8358 6.5 13.25 6.5C13.6642 6.5 14 6.16421 14 5.75C14 5.33579 13.6642 5 13.25 5Z" fill="#6F6F6F"/>
<path fill-rule="evenodd" clip-rule="evenodd" d="M8 2C9.24264 2 10.25 3.00736 10.25 4.25C10.25 5.49264 9.24264 6.5 8 6.5C6.75736 6.5 5.75 5.49264 5.75 4.25C5.75 3.00736 6.75736 2 8 2ZM8 3.5C7.58579 3.5 7.25 3.83579 7.25 4.25C7.25 4.66421 7.58579 5 8 5C8.41421 5 8.75 4.66421 8.75 4.25C8.75 3.83579 8.41421 3.5 8 3.5Z" fill="#6F6F6F"/>
</svg>
