<svg width="16" height="16" viewBox="0 0 16 16" fill="none" xmlns="http://www.w3.org/2000/svg">
<g clip-path="url(#clip0_29253_8026)">
<path fill-rule="evenodd" clip-rule="evenodd" d="M8 3.5C9.51878 3.5 10.75 4.73122 10.75 6.25C10.75 7.76878 9.51878 9 8 9C6.48122 9 5.25 7.76878 5.25 6.25C5.25 4.73122 6.48122 3.5 8 3.5ZM8 5C7.30964 5 6.75 5.55964 6.75 6.25C6.75 6.94036 7.30964 7.5 8 7.5C8.69036 7.5 9.25 6.94036 9.25 6.25C9.25 5.55964 8.69036 5 8 5Z" fill="#6F6F6F"/>
<path fill-rule="evenodd" clip-rule="evenodd" d="M13.25 1C13.6642 1 14 1.33579 14 1.75V9.21484C14 11.2061 12.9695 13.0554 11.2764 14.1035L8.39453 15.8877C8.15273 16.0373 7.84727 16.0373 7.60547 15.8877L4.72363 14.1035C3.03052 13.0554 2.00004 11.2061 2 9.21484V1.75C2 1.33579 2.33579 1 2.75 1H13.25ZM8 11.5C6.89748 11.5 5.81891 11.8258 4.92188 12.3838C5.10444 12.5467 5.30069 12.6969 5.5127 12.8281L8 14.3672L10.4873 12.8281C10.6991 12.697 10.8947 12.5465 11.0771 12.3838C10.1803 11.8261 9.10223 11.5 8 11.5ZM3.5 9.21484C3.50002 9.91741 3.67468 10.5955 3.99219 11.1973C5.14906 10.4407 6.55477 10 8 10C9.44494 10 10.8501 10.441 12.0068 11.1973C12.3245 10.5954 12.5 9.91756 12.5 9.21484V2.5H3.5V9.21484Z" fill="#6F6F6F"/>
</g>
<defs>
<clipPath id="clip0_29253_8026">
<rect width="16" height="16" fill="white"/>
</clipPath>
</defs>
</svg>
