<svg width="17" height="17" viewBox="0 0 17 17" fill="none" xmlns="http://www.w3.org/2000/svg">
<path d="M10.5303 11.0605L8.56055 13.0303L10.5303 15L9.46973 16.0605L6.43945 13.0303L9.46973 10L10.5303 11.0605Z" fill="#6F6F6F"/>
<path d="M16.0605 13.0303L13.0303 16.0605L11.9697 15L13.9395 13.0303L11.9697 11.0605L13.0303 10L16.0605 13.0303Z" fill="#6F6F6F"/>
<path fill-rule="evenodd" clip-rule="evenodd" d="M2.75 0C4.0085 5.50107e-08 5.06684 0.84614 5.39355 2H10.625C12.489 2 14 3.51104 14 5.375C14 7.23896 12.489 8.75 10.625 8.75H10.2598L7 6.4209L4.79004 8L6.93066 9.52832L5.82422 10.5811L3.26855 8.75488C2.2826 8.81012 1.5 9.62523 1.5 10.625C1.5 11.6605 2.33947 12.5 3.375 12.5H5V14H3.375C1.51104 14 0 12.489 0 10.625C0 8.80059 1.44759 7.31421 3.25684 7.25195L6.56445 4.88965L6.66602 4.82812C6.91115 4.70617 7.20754 4.72694 7.43555 4.88965L10.7314 7.24414C11.7174 7.18888 12.5 6.37476 12.5 5.375C12.5 4.33947 11.6605 3.5 10.625 3.5H5.39355C5.06684 4.65386 4.0085 5.5 2.75 5.5C1.23122 5.5 4.58231e-08 4.26878 0 2.75C6.63881e-08 1.23122 1.23122 4.58231e-08 2.75 0ZM2.75 1.5C2.05964 1.5 1.5 2.05964 1.5 2.75C1.5 3.44036 2.05964 4 2.75 4C3.44036 4 4 3.44036 4 2.75C4 2.05964 3.44036 1.5 2.75 1.5Z" fill="#6F6F6F"/>
</svg>
