<svg width="16" height="16" viewBox="0 0 16 16" fill="none" xmlns="http://www.w3.org/2000/svg">
<path fill-rule="evenodd" clip-rule="evenodd" d="M14.3665 3.29027C14.6113 3.33784 14.8164 3.50391 14.9138 3.7334C15.6863 5.55288 15.332 7.73916 13.8465 9.22466C12.4912 10.5799 10.5526 10.9937 8.84145 10.4692L5.65533 13.6553C4.74111 14.5695 3.25888 14.5695 2.34467 13.6553C1.43045 12.7411 1.43045 11.2588 2.34467 10.3446L5.53086 7.15844C5.00645 5.44731 5.42019 3.50883 6.77542 2.1536C8.26087 0.668151 10.447 0.313814 12.2665 1.08617C12.496 1.1836 12.6621 1.3887 12.7096 1.63345C12.7572 1.87819 12.68 2.13057 12.5037 2.30687L10.5 4.31061L10.5 5.49995L11.6893 5.49995L13.6931 3.49617C13.8694 3.31987 14.1218 3.24271 14.3665 3.29027ZM13.8062 5.50437L12.5303 6.78028C12.3897 6.92094 12.1989 6.99995 12 6.99995H9.74999C9.55108 6.99995 9.36032 6.92093 9.21966 6.78028C9.07901 6.63963 8.99999 6.44886 8.99999 6.24995L8.99999 3.99995C8.99999 3.80104 9.07901 3.61027 9.21966 3.46962L10.4955 2.19383C9.53875 2.1437 8.56598 2.48435 7.83608 3.21426C6.79769 4.25265 6.5471 5.78259 7.08874 7.05852C7.20821 7.33995 7.14489 7.66572 6.9287 7.88191L3.40533 11.4053C3.0769 11.7337 3.0769 12.2662 3.40533 12.5946C3.73375 12.9231 4.26624 12.9231 4.59467 12.5946L8.11799 9.07131C8.33418 8.85511 8.65998 8.79179 8.94141 8.91128C10.2174 9.453 11.7474 9.20244 12.7858 8.164C13.5158 7.43404 13.8564 6.46116 13.8062 5.50437Z" fill="#6F6F6F"/>
</svg>
