<svg preserveAspectRatio="none" width="100%" height="100%" overflow="visible" style="display: block;" viewBox="0 0 21.8431 23.561" fill="none" xmlns="http://www.w3.org/2000/svg">
<path id="icon" d="M20.6725 9.71266L10.932 15.2061L0.501659 9.33668L0 9.60822V13.8693L10.932 20.0102L20.6725 14.5377V16.7935L10.932 22.2869L0.501659 16.4175L0 16.6891V17.4201L10.932 23.561L21.8431 17.4201V13.1591L21.3414 12.8875L10.932 18.736L1.17054 13.2635V11.0077L10.932 16.4802L21.8431 10.3393V6.14091L21.2996 5.82759L10.932 11.6552L1.6722 6.4751L10.932 1.27413L18.5405 5.55606L19.2094 5.18008V4.6579L10.932 0L0 6.14091V6.8093L10.932 12.9502L20.6725 7.45681V9.71266Z" fill="var(--fill-0, #FF3621)"/>
</svg>
