<svg width="32" height="32" viewBox="0 0 32 32" fill="none" xmlns="http://www.w3.org/2000/svg">
<path d="M11.6328 10.2451L8.99121 11.6807V20.3203L11.6328 21.7549V25.5635L5.5 22.0381V9.96289L11.6328 6.43652V10.2451ZM26.5 9.96289V22.0381L20.3828 25.5547V21.7471L23.0088 20.3203V11.6807L20.3828 10.2529V6.44531L26.5 9.96289Z" fill="#FFDB96"/>
<path d="M20.841 13.3288V18.6734L16.0407 21.3457L11.2405 18.6734V13.3288L16.0407 10.6565L20.841 13.3288ZM12.5979 14.0891V17.9131L16.0407 19.8297L19.4835 17.9131V14.0891L16.0407 12.1725L12.5979 14.0891Z" fill="#FFAB00"/>
<path d="M12.5979 14.0891V17.9131L16.0407 19.8297L19.4835 17.9131V14.0891L16.0407 12.1725L12.5979 14.0891Z" fill="#FFAB00"/>
</svg>
