<svg width="32" height="32" viewBox="0 0 32 32" fill="none" xmlns="http://www.w3.org/2000/svg">
<path d="M26.2383 26.5593H5.76074V23.2116H26.2383V26.5593Z" fill="#00A972"/>
<path d="M10.8838 20.0341C12.7409 20.0342 14.4825 20.4699 16.001 21.2324C17.5197 21.9967 19.2611 22.4336 21.1191 22.4336C22.8609 22.4336 24.4993 22.0497 25.9502 21.372L26.2383 21.2324V24.9209H5.76074V21.2324H5.7666C7.28693 20.47 9.02675 20.0341 10.8838 20.0341Z" fill="#00A972"/>
<path d="M26.2393 16.9619H5.76172V13.2265H26.2393V16.9619Z" fill="#9ED6C4"/>
<path d="M21.1152 20.0341C19.2582 20.0341 17.5165 19.5984 15.998 18.8359C14.4794 18.0716 12.7379 17.6347 10.8799 17.6347C9.1381 17.6347 7.49968 18.0186 6.04883 18.6963L5.76074 18.8359L5.76074 15.1474L26.2383 15.1474V18.8359H26.2324C24.7121 19.5983 22.9723 20.0341 21.1152 20.0341Z" fill="#9ED6C4"/>
<path d="M5.76123 5.44073H26.2389V11.0889H5.76123V5.44073Z" fill="#9ED6C4"/>
</svg>
