<svg width="32" height="32" viewBox="0 0 32 32" fill="none" xmlns="http://www.w3.org/2000/svg">
<path d="M21.1157 27.9951C19.2586 27.9951 17.517 27.5594 15.9985 26.7969C14.4799 26.0326 12.7384 25.5957 10.8804 25.5957C9.13858 25.5957 7.50017 25.9796 6.04932 26.6573L5.76123 26.7969L5.76123 23.1075L26.2388 23.1075V26.7969H26.2329C24.7126 27.5593 22.9728 27.9951 21.1157 27.9951Z" fill="#FF5F46"/>
<path d="M15.954 4.00482L26.2388 12.7191V15.5966H5.76221V12.7191L15.954 4.00482Z" fill="#FABFBA"/>
<path d="M21.1157 20.1692C19.2586 20.1691 17.517 19.7334 15.9985 18.9709C14.4799 18.2066 12.7384 17.7697 10.8804 17.7697C9.13858 17.7697 7.50017 18.1536 6.04932 18.8313L5.76123 18.9709L5.76123 15.5969L26.2388 15.5966V18.9709H26.2329C24.7126 19.7333 22.9728 20.1692 21.1157 20.1692Z" fill="#FABFBA"/>
<path d="M10.8843 20.1692C12.7414 20.1692 14.483 20.6049 16.0015 21.3674C17.5201 22.1317 19.2616 22.5686 21.1196 22.5686C22.8614 22.5686 24.4998 22.1847 25.9507 21.507L26.2388 21.3674V25.0559H5.76123V21.3674H5.76709C7.28742 20.605 9.02724 20.1692 10.8843 20.1692Z" fill="#FF5F46"/>
</svg>
